<svg xmlns="http://www.w3.org/2000/svg" xmlns:xlink="http://www.w3.org/1999/xlink" width="336" zoomAndPan="magnify" viewBox="-20 0 272 143.999998" height="192" preserveAspectRatio="xMidYMid meet" version="1.2"><defs><clipPath id="ebbe15bbc7"><path d="M 138.390625 14.398438 L 202.890625 14.398438 L 202.890625 119.398438 L 138.390625 119.398438 Z M 138.390625 14.398438 "/></clipPath></defs><g id="8734000c0f"><g clip-rule="nonzero" clip-path="url(#ebbe15bbc7)"><path style=" stroke:none;fill-rule:nonzero;fill:#8f1c2e;fill-opacity:1;" d="M 165.9375 53.855469 C 165.253906 53.851562 164.589844 53.878906 163.933594 53.824219 C 163.660156 53.800781 163.390625 53.613281 163.140625 53.472656 C 162.917969 53.34375 162.714844 53.179688 162.511719 53.019531 C 162.246094 52.800781 161.949219 52.871094 161.660156 52.90625 C 161.40625 52.9375 161.15625 52.996094 160.90625 53.046875 C 160.621094 53.105469 160.335938 53.167969 160.046875 53.230469 C 159.96875 53.246094 159.882812 53.269531 159.804688 53.261719 C 159.292969 53.214844 158.78125 53.238281 158.277344 53.328125 C 158.242188 53.332031 158.203125 53.328125 158.171875 53.316406 C 157.816406 53.191406 157.621094 53.359375 157.476562 53.667969 C 157.4375 53.753906 157.339844 53.824219 157.257812 53.882812 C 157.152344 53.960938 157.03125 54.027344 156.914062 54.09375 C 156.855469 54.125 156.78125 54.164062 156.71875 54.160156 C 156.429688 54.140625 156.140625 54.121094 155.855469 54.070312 C 155.445312 54.003906 155.109375 53.839844 155.109375 53.339844 C 155.109375 53.324219 155.082031 53.304688 155.058594 53.277344 C 154.261719 53.703125 153.644531 54.289062 153.253906 55.136719 C 153.523438 55.226562 153.761719 55.320312 154.011719 55.386719 C 154.601562 55.542969 155.097656 55.878906 155.605469 56.199219 C 155.671875 56.242188 155.746094 56.382812 155.726562 56.449219 C 155.46875 57.234375 155.3125 58.058594 154.894531 58.789062 C 154.605469 59.296875 154.207031 59.703125 153.722656 60.007812 C 153.292969 60.277344 152.847656 60.542969 152.371094 60.71875 C 151.90625 60.886719 151.398438 60.957031 150.90625 61.035156 C 150.75 61.058594 150.671875 61.082031 150.640625 61.238281 C 150.628906 61.316406 150.589844 61.394531 150.546875 61.464844 C 150.457031 61.613281 150.496094 61.730469 150.613281 61.839844 C 151.050781 62.242188 151.121094 62.785156 151.136719 63.324219 C 151.140625 63.507812 150.972656 63.699219 150.875 63.898438 C 151.082031 64.199219 151.0625 64.640625 150.761719 65.03125 C 150.511719 65.355469 150.195312 65.589844 149.769531 65.648438 C 149.527344 65.679688 149.285156 65.734375 149.054688 65.8125 C 148.980469 65.839844 148.917969 65.957031 148.890625 66.046875 C 148.765625 66.414062 148.683594 66.792969 148.539062 67.144531 C 148.460938 67.335938 148.464844 67.476562 148.558594 67.636719 C 148.703125 67.882812 148.855469 68.121094 148.980469 68.371094 C 149.148438 68.703125 149.296875 69.050781 149.457031 69.386719 C 149.558594 69.59375 149.503906 69.773438 149.371094 69.941406 C 149.230469 70.117188 149.0625 70.054688 148.886719 69.996094 C 148.328125 69.816406 147.714844 69.746094 147.214844 69.417969 C 146.671875 69.058594 146.019531 68.875 145.554688 68.382812 C 145.304688 68.117188 145.3125 67.859375 145.640625 67.667969 C 146.265625 67.300781 146.941406 67.019531 147.640625 66.839844 C 147.933594 66.765625 148.007812 66.589844 148.09375 66.378906 C 148.144531 66.25 148.171875 66.109375 148.21875 65.949219 C 147.988281 65.910156 147.761719 65.847656 147.53125 65.832031 C 146.9375 65.800781 146.496094 65.460938 146.175781 65.035156 C 145.722656 64.4375 145.414062 63.746094 145.171875 63.03125 C 145.125 62.902344 145.132812 62.757812 145.113281 62.625 C 145.066406 62.324219 145.027344 62.023438 144.972656 61.722656 C 144.960938 61.667969 144.882812 61.625 144.820312 61.558594 C 144.378906 61.988281 143.84375 62.140625 143.25 62.132812 C 142.8125 62.128906 142.675781 62.042969 142.496094 61.632812 C 142.46875 61.574219 142.398438 61.535156 142.351562 61.488281 C 142.1875 61.335938 142.007812 61.199219 141.867188 61.027344 C 141.664062 60.773438 141.460938 60.558594 141.09375 60.5625 C 140.929688 60.566406 140.808594 60.464844 140.804688 60.242188 C 140.804688 60.09375 140.710938 59.933594 140.617188 59.808594 C 140.460938 59.605469 140.226562 59.453125 140.109375 59.230469 C 139.886719 58.8125 139.722656 58.359375 139.542969 57.917969 C 139.484375 57.78125 139.425781 57.632812 139.417969 57.488281 C 139.386719 57.007812 139.136719 56.601562 139.007812 56.15625 C 138.851562 55.621094 138.722656 55.074219 138.578125 54.535156 C 138.503906 54.257812 138.390625 53.996094 138.578125 53.699219 C 138.660156 53.570312 138.621094 53.363281 138.628906 53.191406 C 138.644531 52.886719 138.652344 52.585938 138.660156 52.285156 C 138.671875 51.84375 138.667969 51.402344 138.703125 50.964844 C 138.75 50.34375 138.828125 49.726562 138.894531 49.109375 C 138.902344 49.050781 138.910156 48.992188 138.929688 48.9375 C 139.058594 48.621094 139.0625 48.621094 138.921875 48.304688 C 139.042969 48.128906 139.171875 47.945312 139.289062 47.757812 C 139.34375 47.667969 139.417969 47.566406 139.417969 47.472656 C 139.398438 46.925781 139.765625 46.519531 139.917969 46.039062 C 140.015625 45.730469 140.144531 45.433594 140.261719 45.136719 C 140.304688 45.03125 140.359375 44.933594 140.40625 44.828125 C 140.4375 44.757812 140.457031 44.679688 140.488281 44.605469 C 140.574219 44.398438 140.625 44.160156 140.761719 43.992188 C 141.027344 43.664062 141.210938 43.3125 141.355469 42.917969 C 141.476562 42.582031 141.664062 42.265625 141.824219 41.945312 C 141.839844 41.914062 141.871094 41.886719 141.882812 41.855469 C 142.171875 41.042969 142.871094 40.496094 143.261719 39.738281 C 143.460938 39.359375 143.863281 39.089844 144.164062 38.757812 C 144.359375 38.546875 144.535156 38.3125 144.71875 38.089844 C 144.804688 37.984375 144.863281 37.828125 144.976562 37.777344 C 145.433594 37.5625 145.691406 37.148438 146.011719 36.796875 C 146.207031 36.582031 146.359375 36.324219 146.574219 36.128906 C 146.824219 35.902344 147.121094 35.726562 147.394531 35.523438 C 147.523438 35.425781 147.632812 35.304688 147.757812 35.203125 C 147.941406 35.058594 148.125 34.914062 148.316406 34.78125 C 148.496094 34.652344 148.6875 34.539062 148.863281 34.40625 C 149.207031 34.148438 149.535156 33.875 149.882812 33.621094 C 149.980469 33.546875 150.117188 33.523438 150.238281 33.480469 C 150.675781 33.316406 151.109375 33.144531 151.554688 32.996094 C 151.917969 32.871094 152.296875 32.789062 152.664062 32.664062 C 153.320312 32.445312 153.972656 32.210938 154.625 31.972656 C 155.25 31.746094 155.875 31.511719 156.503906 31.277344 C 156.851562 31.148438 157.195312 31.003906 157.546875 30.882812 C 157.804688 30.796875 158.070312 30.742188 158.328125 30.664062 C 158.976562 30.46875 159.621094 30.257812 160.273438 30.078125 C 160.726562 29.953125 161.179688 29.875 161.613281 29.675781 C 162.367188 29.335938 163.15625 29.074219 163.925781 28.773438 C 164.21875 28.65625 164.523438 28.542969 164.789062 28.378906 C 165.1875 28.132812 165.644531 28.085938 166.074219 27.949219 C 166.382812 27.855469 166.675781 27.703125 166.980469 27.585938 C 167.152344 27.523438 167.347656 27.515625 167.507812 27.429688 C 167.726562 27.3125 167.90625 27.109375 168.128906 27.007812 C 168.359375 26.90625 168.625 26.855469 168.878906 26.84375 C 169.070312 26.835938 169.160156 26.777344 169.273438 26.628906 C 169.597656 26.214844 169.953125 25.828125 170.328125 25.394531 C 170.285156 25.3125 170.230469 25.152344 170.132812 25.027344 C 169.96875 24.820312 169.910156 24.589844 169.910156 24.339844 C 169.914062 24.023438 169.914062 23.703125 169.941406 23.386719 C 169.953125 23.265625 170 23.125 170.078125 23.03125 C 170.507812 22.523438 170.507812 21.90625 170.566406 21.292969 C 170.589844 21.019531 170.671875 20.746094 170.746094 20.480469 C 170.863281 20.050781 171.074219 19.648438 171.0625 19.1875 C 171.0625 19.113281 171.105469 19.019531 171.160156 18.964844 C 171.457031 18.675781 171.582031 18.292969 171.761719 17.9375 C 171.945312 17.574219 172.164062 17.230469 172.394531 16.835938 C 172.25 16.707031 172.089844 16.53125 171.902344 16.40625 C 171.613281 16.210938 171.597656 15.894531 171.59375 15.625 C 171.589844 15.476562 171.796875 15.28125 171.957031 15.183594 C 172.292969 14.972656 172.628906 14.753906 173.054688 14.75 C 173.238281 14.746094 173.429688 14.691406 173.597656 14.621094 C 174.097656 14.410156 174.59375 14.585938 175.089844 14.59375 C 175.425781 14.597656 175.765625 14.535156 176.101562 14.546875 C 176.480469 14.558594 176.839844 14.679688 177.078125 15 C 177.1875 15.148438 177.300781 15.210938 177.488281 15.214844 C 178.132812 15.226562 178.65625 15.546875 179.140625 15.929688 C 179.257812 16.019531 179.308594 16.230469 179.335938 16.394531 C 179.449219 17.078125 179.402344 17.753906 179.203125 18.417969 C 179.027344 19.007812 179.035156 19.011719 178.710938 19.273438 C 178.710938 19.292969 178.707031 19.324219 178.71875 19.335938 C 179.289062 19.957031 179 20.632812 178.832031 21.292969 C 178.714844 21.734375 178.550781 22.164062 178.433594 22.605469 C 178.308594 23.066406 177.792969 23.554688 177.320312 23.628906 C 176.792969 23.710938 176.628906 23.902344 176.640625 24.4375 C 176.640625 24.515625 176.671875 24.59375 176.6875 24.671875 C 177.15625 24.566406 177.84375 24.90625 178.152344 25.335938 C 178.402344 25.683594 178.636719 26.070312 179.0625 26.230469 C 179.292969 26.316406 179.566406 26.292969 179.800781 26.378906 C 180.558594 26.644531 181.347656 26.808594 182.070312 27.1875 C 182.539062 27.429688 183.046875 27.59375 183.523438 27.816406 C 184.011719 28.042969 184.472656 28.335938 184.96875 28.535156 C 185.71875 28.832031 186.355469 29.320312 187.054688 29.703125 C 187.476562 29.933594 187.832031 30.292969 188.21875 30.59375 C 188.410156 30.746094 188.605469 30.894531 188.792969 31.050781 C 189.4375 31.589844 190.09375 32.117188 190.726562 32.671875 C 191.042969 32.949219 191.316406 33.269531 191.605469 33.570312 C 191.664062 33.628906 191.710938 33.714844 191.78125 33.738281 C 192.078125 33.839844 192.230469 34.105469 192.441406 34.300781 C 192.738281 34.582031 193.042969 34.855469 193.34375 35.128906 C 193.421875 35.199219 193.515625 35.261719 193.570312 35.347656 C 193.90625 35.855469 194.433594 36.167969 194.828125 36.613281 C 195.089844 36.90625 195.367188 37.1875 195.640625 37.472656 C 196.453125 38.3125 197.238281 39.183594 197.933594 40.125 C 198.304688 40.621094 198.734375 41.070312 199.066406 41.585938 C 199.320312 41.980469 199.5 42.421875 199.789062 42.804688 C 200 43.078125 200.152344 43.402344 200.324219 43.707031 C 200.378906 43.796875 200.460938 43.890625 200.460938 43.984375 C 200.457031 44.546875 200.773438 44.988281 201 45.46875 C 201.070312 45.621094 201.074219 45.8125 201.144531 45.964844 C 201.402344 46.507812 201.558594 47.078125 201.6875 47.664062 C 201.835938 48.332031 202.027344 48.996094 202.183594 49.664062 C 202.222656 49.832031 202.199219 50.011719 202.21875 50.1875 C 202.257812 50.566406 202.34375 50.949219 202.351562 51.328125 C 202.382812 52.453125 202.074219 53.507812 201.660156 54.539062 C 201.492188 54.960938 201.429688 55.429688 201.25 55.84375 C 201 56.410156 200.679688 56.9375 200.164062 57.324219 C 199.914062 57.515625 199.714844 57.773438 199.480469 57.984375 C 199.042969 58.386719 198.597656 58.78125 198.035156 59.007812 C 197.882812 59.070312 197.753906 59.175781 197.609375 59.253906 C 197.519531 59.304688 197.417969 59.371094 197.324219 59.375 C 196.84375 59.378906 196.457031 59.648438 196.023438 59.78125 C 195.675781 59.890625 195.289062 59.890625 194.921875 59.945312 C 194.8125 59.960938 194.710938 60.003906 194.601562 60.03125 C 194.425781 60.078125 194.253906 60.132812 194.074219 60.164062 C 193.914062 60.191406 193.738281 60.160156 193.59375 60.214844 C 193.308594 60.320312 193.03125 60.339844 192.730469 60.304688 C 192.523438 60.28125 192.308594 60.304688 192.097656 60.316406 C 191.183594 60.367188 190.265625 60.371094 189.355469 60.25 C 189.222656 60.234375 189.082031 60.28125 188.882812 60.308594 C 188.941406 60.53125 188.992188 60.726562 189.050781 60.921875 C 189.152344 61.269531 189.253906 61.617188 189.359375 61.960938 C 189.425781 62.183594 189.503906 62.402344 189.570312 62.625 C 189.59375 62.691406 189.621094 62.761719 189.613281 62.828125 C 189.554688 63.226562 189.710938 63.574219 189.820312 63.945312 C 189.964844 64.429688 190.035156 64.929688 190.136719 65.425781 C 190.164062 65.574219 190.160156 65.734375 190.21875 65.871094 C 190.410156 66.308594 190.339844 66.820312 190.617188 67.238281 C 190.675781 67.320312 190.640625 67.464844 190.660156 67.582031 C 190.714844 67.914062 190.773438 68.246094 190.832031 68.578125 C 190.933594 69.148438 191.027344 69.726562 191.132812 70.296875 C 191.183594 70.578125 191.34375 70.839844 191.226562 71.152344 C 191.191406 71.238281 191.34375 71.386719 191.34375 71.503906 C 191.332031 72.117188 191.644531 72.667969 191.664062 73.273438 C 191.667969 73.414062 191.644531 73.554688 191.660156 73.691406 C 191.675781 73.816406 191.6875 73.964844 191.761719 74.054688 C 191.964844 74.308594 191.949219 74.59375 191.96875 74.886719 C 192.007812 75.589844 192.058594 76.289062 192.125 76.988281 C 192.140625 77.15625 192.242188 77.316406 192.277344 77.484375 C 192.351562 77.859375 192.414062 78.238281 192.472656 78.617188 C 192.535156 79.003906 192.585938 79.394531 192.640625 79.78125 C 192.652344 79.859375 192.691406 79.945312 192.679688 80.019531 C 192.605469 80.433594 192.695312 80.835938 192.773438 81.238281 C 192.816406 81.441406 192.921875 81.628906 192.980469 81.832031 C 193.023438 81.960938 193.078125 82.113281 193.050781 82.238281 C 192.925781 82.792969 193.140625 83.273438 193.339844 83.761719 C 193.378906 83.851562 193.414062 83.964844 193.394531 84.054688 C 193.332031 84.339844 193.371094 84.605469 193.421875 84.886719 C 193.503906 85.335938 193.515625 85.796875 193.574219 86.25 C 193.640625 86.757812 193.746094 87.261719 193.800781 87.769531 C 193.882812 88.484375 193.917969 89.199219 193.996094 89.910156 C 194.023438 90.171875 194.121094 90.429688 194.160156 90.691406 C 194.246094 91.304688 194.304688 91.917969 194.390625 92.53125 C 194.4375 92.867188 194.523438 93.195312 194.582031 93.527344 C 194.628906 93.769531 194.660156 94.007812 194.695312 94.25 C 194.769531 94.777344 194.847656 95.308594 194.917969 95.835938 C 194.933594 95.941406 194.980469 96.074219 194.9375 96.148438 C 194.777344 96.425781 194.863281 96.699219 194.933594 96.960938 C 195.085938 97.53125 195.058594 98.101562 195.019531 98.675781 C 195.015625 98.75 195.046875 98.832031 195.0625 98.90625 C 195.078125 99.007812 195.117188 99.109375 195.113281 99.210938 C 195.105469 99.492188 195.070312 99.769531 195.070312 100.050781 C 195.0625 100.398438 195.074219 100.75 195.089844 101.101562 C 195.105469 101.484375 195.136719 101.867188 195.152344 102.253906 C 195.167969 102.625 195.15625 102.996094 195.179688 103.367188 C 195.222656 103.984375 195.292969 104.601562 195.332031 105.21875 C 195.359375 105.71875 195.359375 106.21875 195.375 106.71875 C 195.378906 106.785156 195.417969 106.851562 195.421875 106.917969 C 195.4375 107.140625 195.5 107.378906 195.445312 107.578125 C 195.3125 108.039062 195.363281 108.480469 195.46875 108.929688 C 195.503906 109.070312 195.472656 109.226562 195.480469 109.375 C 195.492188 109.722656 195.511719 110.070312 195.527344 110.417969 C 195.542969 110.71875 195.578125 111.023438 195.554688 111.324219 C 195.527344 111.628906 195.382812 111.898438 195.152344 112.15625 C 194.960938 111.945312 194.742188 111.914062 194.488281 111.921875 C 194.214844 111.933594 193.941406 111.835938 193.664062 111.8125 C 193.105469 111.765625 192.546875 111.734375 191.984375 111.699219 C 191.941406 111.695312 191.898438 111.710938 191.8125 111.722656 C 191.828125 112.21875 191.847656 112.707031 191.859375 113.191406 C 191.875 113.839844 191.898438 114.492188 191.777344 115.132812 C 191.765625 115.1875 191.742188 115.246094 191.707031 115.289062 C 191.394531 115.667969 191.109375 116.070312 190.664062 116.320312 C 190.015625 116.6875 189.347656 116.96875 188.601562 117.085938 C 187.980469 117.183594 187.363281 117.324219 186.753906 117.488281 C 186.164062 117.648438 185.601562 117.894531 185.007812 118.039062 C 184.347656 118.199219 183.691406 118.441406 182.976562 118.335938 C 182.414062 118.253906 181.957031 117.464844 182.230469 116.96875 C 182.359375 116.734375 182.511719 116.511719 182.664062 116.289062 C 182.707031 116.222656 182.785156 116.179688 182.855469 116.136719 C 183.363281 115.832031 183.871094 115.523438 184.394531 115.238281 C 184.582031 115.132812 184.800781 115.035156 185.007812 115.03125 C 185.492188 115.015625 185.859375 114.722656 186.28125 114.5625 C 186.832031 114.347656 187.386719 114.140625 187.988281 113.910156 C 188.042969 113.53125 187.910156 113.089844 187.835938 112.636719 C 187.761719 112.191406 187.722656 111.734375 187.664062 111.238281 C 187.25 111.117188 186.792969 110.984375 186.339844 110.84375 C 186.109375 110.773438 185.882812 110.675781 185.644531 110.609375 C 185.46875 110.554688 185.28125 110.539062 185.101562 110.496094 C 184.703125 110.402344 184.3125 110.296875 183.917969 110.195312 C 183.875 110.183594 183.820312 110.164062 183.796875 110.128906 C 183.453125 109.632812 183.03125 109.164062 183.148438 108.480469 C 183.175781 108.3125 183.175781 108.121094 183.121094 107.960938 C 182.988281 107.578125 183.03125 107.195312 183.050781 106.808594 C 183.0625 106.519531 183.054688 106.226562 183.039062 105.933594 C 183.027344 105.691406 182.980469 105.449219 182.964844 105.207031 C 182.945312 104.867188 182.929688 104.527344 182.9375 104.1875 C 182.945312 103.960938 183.0625 103.71875 182.925781 103.507812 C 182.707031 103.179688 182.746094 102.84375 182.828125 102.492188 C 182.851562 102.40625 182.828125 102.304688 182.800781 102.214844 C 182.71875 101.960938 182.691406 101.710938 182.769531 101.453125 C 182.789062 101.386719 182.800781 101.3125 182.792969 101.242188 C 182.761719 100.957031 182.757812 100.660156 182.683594 100.382812 C 182.523438 99.777344 182.675781 99.167969 182.628906 98.5625 C 182.613281 98.390625 182.550781 98.222656 182.535156 98.046875 C 182.503906 97.734375 182.496094 97.421875 182.476562 97.105469 C 182.449219 96.722656 182.417969 96.335938 182.398438 95.949219 C 182.390625 95.75 182.417969 95.550781 182.398438 95.351562 C 182.355469 94.910156 182.285156 94.472656 182.238281 94.03125 C 182.21875 93.8125 182.214844 93.589844 182.21875 93.367188 C 182.21875 93.226562 182.292969 93.066406 182.246094 92.949219 C 182.042969 92.445312 182.101562 91.921875 182.078125 91.402344 C 182.074219 91.25 182.054688 91.097656 182.03125 90.945312 C 181.945312 90.378906 181.847656 89.816406 181.769531 89.25 C 181.722656 88.914062 181.703125 88.578125 181.660156 88.242188 C 181.582031 87.617188 181.5 86.992188 181.402344 86.367188 C 181.3125 85.777344 181.203125 85.191406 181.105469 84.601562 C 181.097656 84.542969 181.089844 84.484375 181.09375 84.429688 C 181.125 83.871094 181.03125 83.332031 180.839844 82.8125 C 180.816406 82.746094 180.796875 82.675781 180.789062 82.605469 C 180.734375 82.058594 180.683594 81.507812 180.625 80.960938 C 180.558594 80.347656 180.488281 79.734375 180.402344 79.121094 C 180.367188 78.90625 180.25 78.703125 180.210938 78.484375 C 180.144531 78.132812 180.160156 77.757812 180.054688 77.417969 C 179.851562 76.773438 179.921875 76.097656 179.773438 75.445312 C 179.644531 74.890625 179.601562 74.3125 179.53125 73.746094 C 179.496094 73.457031 179.511719 73.164062 179.453125 72.878906 C 179.3125 72.171875 179.136719 71.472656 178.988281 70.769531 C 178.886719 70.289062 178.820312 69.804688 178.710938 69.328125 C 178.589844 68.800781 178.441406 68.28125 178.308594 67.761719 C 178.265625 67.761719 178.226562 67.765625 178.183594 67.765625 C 178.136719 68.023438 178.082031 68.277344 178.046875 68.535156 C 177.960938 69.113281 177.851562 69.691406 177.816406 70.273438 C 177.785156 70.796875 177.84375 71.320312 177.859375 71.84375 C 177.859375 71.898438 177.824219 71.953125 177.816406 72.011719 C 177.789062 72.242188 177.714844 72.480469 177.753906 72.703125 C 177.789062 72.914062 177.75 73.082031 177.691406 73.277344 C 177.554688 73.742188 177.453125 74.214844 177.480469 74.71875 C 177.503906 75.109375 177.410156 75.503906 177.371094 75.898438 C 177.324219 76.433594 177.296875 76.96875 177.226562 77.503906 C 177.183594 77.867188 177.152344 78.214844 177.214844 78.585938 C 177.257812 78.816406 177.226562 79.09375 177.125 79.300781 C 176.929688 79.71875 176.9375 80.148438 176.941406 80.582031 C 176.957031 81.609375 176.882812 82.628906 176.742188 83.644531 C 176.695312 83.96875 176.53125 84.324219 176.722656 84.679688 C 176.773438 84.777344 176.757812 84.945312 176.714844 85.058594 C 176.550781 85.535156 176.589844 86.023438 176.601562 86.507812 C 176.601562 86.578125 176.589844 86.652344 176.5625 86.714844 C 176.398438 87.140625 176.371094 87.574219 176.421875 88.023438 C 176.429688 88.09375 176.457031 88.175781 176.429688 88.230469 C 176.230469 88.632812 176.40625 89.035156 176.410156 89.4375 C 176.410156 89.621094 176.382812 89.804688 176.363281 89.988281 C 176.285156 90.734375 176.1875 91.480469 176.125 92.230469 C 176.101562 92.554688 176.160156 92.886719 176.152344 93.210938 C 176.144531 93.488281 176.085938 93.765625 176.070312 94.042969 C 176.027344 94.71875 175.914062 95.398438 175.984375 96.0625 C 176.046875 96.636719 175.898438 97.203125 176.007812 97.765625 C 176.015625 97.8125 176.011719 97.863281 175.996094 97.90625 C 175.753906 98.558594 175.921875 99.21875 175.9375 99.875 C 175.949219 100.253906 176.046875 100.621094 175.898438 101.015625 C 175.78125 101.316406 175.832031 101.671875 175.933594 102 C 175.972656 102.121094 175.964844 102.261719 175.953125 102.394531 C 175.910156 102.765625 175.828125 103.132812 175.941406 103.511719 C 175.988281 103.683594 175.941406 103.882812 175.957031 104.066406 C 175.988281 104.367188 176.035156 104.664062 176.074219 104.964844 C 176.089844 105.09375 176.148438 105.234375 176.109375 105.339844 C 175.882812 105.941406 175.980469 106.5625 175.960938 107.171875 C 175.949219 107.4375 175.929688 107.699219 175.902344 107.960938 C 175.851562 108.5 175.914062 109.046875 175.898438 109.589844 C 175.886719 109.910156 175.9375 110.242188 175.785156 110.550781 C 175.761719 110.601562 175.742188 110.667969 175.753906 110.71875 C 175.871094 111.144531 175.667969 111.519531 175.566406 111.910156 C 175.539062 112.011719 175.441406 112.101562 175.378906 112.195312 C 175.320312 112.28125 175.230469 112.355469 175.210938 112.449219 C 175.160156 112.664062 175.027344 112.796875 174.851562 112.90625 C 174.5625 113.089844 174.269531 113.261719 173.984375 113.445312 C 173.820312 113.550781 173.675781 113.617188 173.507812 113.457031 C 173.460938 113.414062 173.363281 113.363281 173.320312 113.386719 C 172.839844 113.609375 172.40625 113.214844 171.941406 113.289062 C 171.878906 113.296875 171.804688 113.257812 171.742188 113.234375 C 171.488281 113.125 171.238281 113.015625 170.960938 112.898438 C 170.917969 113.023438 170.851562 113.113281 170.863281 113.191406 C 170.917969 113.597656 170.742188 113.96875 170.726562 114.363281 C 170.71875 114.617188 170.714844 114.875 170.75 115.125 C 170.804688 115.507812 170.902344 115.882812 170.960938 116.265625 C 171.023438 116.671875 170.8125 116.964844 170.515625 117.210938 C 170.101562 117.554688 169.644531 117.746094 169.082031 117.796875 C 168.628906 117.835938 168.15625 117.863281 167.710938 118.046875 C 167.453125 118.152344 167.148438 118.148438 166.863281 118.191406 C 166.808594 118.203125 166.738281 118.203125 166.695312 118.234375 C 166.242188 118.558594 165.6875 118.628906 165.179688 118.765625 C 164.511719 118.945312 163.867188 119.253906 163.132812 119.203125 C 162.757812 119.175781 162.367188 119.347656 162 119.304688 C 161.542969 119.25 161.066406 119.386719 160.621094 119.140625 C 160.238281 118.929688 159.964844 118.53125 160.082031 118.117188 C 160.148438 117.878906 160.273438 117.613281 160.457031 117.464844 C 160.855469 117.136719 161.304688 116.871094 161.746094 116.601562 C 161.898438 116.503906 162.09375 116.480469 162.265625 116.40625 C 162.382812 116.359375 162.503906 116.300781 162.597656 116.21875 C 162.820312 116.019531 163.085938 115.976562 163.367188 115.9375 C 163.792969 115.878906 164.222656 115.851562 164.644531 115.699219 C 165.386719 115.4375 166.15625 115.25 166.960938 115.015625 C 167.066406 114.261719 167.039062 113.480469 166.824219 112.640625 C 166.589844 112.648438 166.320312 112.660156 166.050781 112.664062 C 165.984375 112.664062 165.898438 112.660156 165.847656 112.625 C 165.601562 112.445312 165.3125 112.488281 165.039062 112.449219 C 164.597656 112.390625 164.160156 112.34375 163.777344 112.0625 C 163.390625 111.769531 163.199219 111.414062 163.199219 110.925781 C 163.199219 110.433594 163.152344 109.9375 163.132812 109.445312 C 163.125 109.25 163.136719 109.050781 163.144531 108.855469 C 163.164062 108.304688 163.054688 107.769531 162.90625 107.246094 C 162.863281 107.101562 162.851562 106.992188 162.921875 106.847656 C 163.03125 106.621094 163.03125 106.40625 162.90625 106.148438 C 162.785156 105.898438 162.796875 105.582031 162.757812 105.296875 C 162.746094 105.226562 162.785156 105.144531 162.761719 105.085938 C 162.601562 104.644531 162.707031 104.183594 162.636719 103.734375 C 162.589844 103.457031 162.507812 103.1875 162.484375 102.90625 C 162.460938 102.679688 162.496094 102.445312 162.503906 102.214844 C 162.507812 102.15625 162.53125 102.089844 162.507812 102.042969 C 162.328125 101.675781 162.476562 101.300781 162.46875 100.929688 C 162.460938 100.640625 162.429688 100.347656 162.429688 100.058594 C 162.425781 99.828125 162.480469 99.589844 162.457031 99.363281 C 162.390625 98.789062 162.683594 98.226562 162.496094 97.648438 C 162.46875 97.5625 162.488281 97.460938 162.496094 97.367188 C 162.539062 96.738281 162.597656 96.109375 162.621094 95.476562 C 162.632812 95.128906 162.578125 94.777344 162.5625 94.429688 C 162.554688 94.265625 162.566406 94.101562 162.585938 93.941406 C 162.667969 93.15625 162.761719 92.367188 162.835938 91.582031 C 162.855469 91.410156 162.800781 91.230469 162.804688 91.054688 C 162.8125 90.859375 162.8125 90.644531 162.890625 90.472656 C 162.996094 90.230469 163.03125 89.984375 162.953125 89.75 C 162.816406 89.335938 163.007812 88.96875 163.0625 88.582031 C 163.082031 88.441406 163.105469 88.296875 163.117188 88.152344 C 163.128906 87.941406 163.128906 87.730469 163.140625 87.515625 C 163.171875 87.011719 163.167969 86.503906 163.25 86.007812 C 163.34375 85.453125 163.148438 84.882812 163.390625 84.347656 C 163.394531 84.335938 163.398438 84.324219 163.398438 84.3125 C 163.386719 83.433594 163.554688 82.566406 163.601562 81.691406 C 163.617188 81.359375 163.59375 81.019531 163.636719 80.683594 C 163.691406 80.21875 163.726562 79.753906 163.769531 79.289062 C 163.773438 79.253906 163.792969 79.210938 163.777344 79.1875 C 163.570312 78.816406 163.730469 78.472656 163.808594 78.105469 C 163.875 77.78125 163.816406 77.433594 163.816406 77.097656 C 163.816406 77.015625 163.804688 76.921875 163.835938 76.851562 C 164.0625 76.355469 163.890625 75.828125 163.953125 75.316406 C 163.988281 75.054688 164 74.789062 164.027344 74.523438 C 164.070312 74.121094 164.125 73.71875 164.160156 73.3125 C 164.179688 73.066406 164.160156 72.816406 164.175781 72.570312 C 164.203125 72.078125 164.234375 71.589844 164.273438 71.101562 C 164.316406 70.542969 164.46875 70.003906 164.445312 69.429688 C 164.425781 68.957031 164.546875 68.476562 164.601562 68 C 164.628906 67.734375 164.632812 67.46875 164.660156 67.203125 C 164.734375 66.496094 164.890625 65.785156 164.863281 65.078125 C 164.84375 64.539062 165.136719 64.0625 165.042969 63.53125 C 165.035156 63.476562 165.0625 63.414062 165.082031 63.359375 C 165.25 62.851562 165.28125 62.339844 165.207031 61.804688 C 165.164062 61.496094 165.304688 61.164062 165.320312 60.84375 C 165.339844 60.429688 165.347656 60.023438 165.445312 59.617188 C 165.507812 59.339844 165.441406 59.03125 165.460938 58.742188 C 165.480469 58.394531 165.53125 58.046875 165.570312 57.703125 C 165.675781 56.792969 165.789062 55.886719 165.882812 54.980469 C 165.921875 54.597656 165.921875 54.210938 165.9375 53.855469 Z M 171.851562 53.914062 C 172.269531 53.652344 172.6875 53.386719 173.113281 53.117188 C 173.238281 53.457031 173.050781 53.632812 172.855469 53.789062 C 172.699219 53.914062 172.625 54.046875 172.664062 54.269531 C 172.953125 54.023438 173.199219 53.769531 173.488281 53.578125 C 173.738281 53.410156 173.921875 53.164062 174.269531 53.082031 C 174.601562 53.007812 174.859375 53.121094 175.152344 53.152344 C 175.851562 53.226562 176.410156 53.625 177.027344 53.902344 C 177.566406 54.144531 178.105469 54.390625 178.660156 54.644531 C 178.824219 54.378906 178.988281 54.164062 179.101562 53.925781 C 179.28125 53.558594 179.421875 53.175781 179.585938 52.804688 C 179.675781 52.609375 179.785156 52.421875 179.875 52.246094 C 179.8125 52.1875 179.796875 52.164062 179.777344 52.160156 C 178.960938 51.921875 178.128906 51.722656 177.386719 51.28125 C 177.023438 51.0625 176.59375 50.917969 176.304688 50.632812 C 175.898438 50.226562 175.480469 49.804688 175.277344 49.226562 C 175.085938 48.6875 174.84375 48.164062 174.59375 47.652344 C 174.46875 47.390625 174.304688 47.132812 174.109375 46.921875 C 173.8125 46.589844 173.464844 46.304688 173.144531 45.992188 C 172.996094 45.847656 172.832031 45.78125 172.625 45.8125 C 172.777344 46.089844 172.945312 46.332031 173.058594 46.597656 C 173.175781 46.863281 173.308594 47.148438 173.316406 47.429688 C 173.328125 48.105469 173.175781 48.757812 172.777344 49.328125 C 172.738281 49.382812 172.707031 49.445312 172.675781 49.503906 C 172.28125 50.25 171.882812 50.988281 171.242188 51.566406 C 170.734375 52.019531 169.542969 53.023438 168.859375 53.21875 C 168.929688 53.242188 168.964844 53.265625 169.007812 53.265625 C 169.707031 53.316406 170.3125 53.054688 170.878906 52.679688 C 171.0625 52.558594 171.253906 52.449219 171.453125 52.355469 C 171.519531 52.324219 171.621094 52.359375 171.707031 52.367188 C 171.699219 52.464844 171.714844 52.570312 171.675781 52.65625 C 171.546875 52.953125 171.246094 53.035156 170.984375 53.167969 C 170.773438 53.277344 170.578125 53.414062 170.375 53.539062 C 170.457031 53.605469 170.519531 53.632812 170.5625 53.613281 C 171.066406 53.398438 171.570312 53.179688 172.066406 52.957031 C 172.195312 52.898438 172.296875 52.742188 172.460938 52.859375 C 172.425781 53.324219 172.117188 53.601562 171.828125 53.886719 C 171.804688 53.910156 171.78125 53.933594 171.757812 53.957031 C 171.789062 53.941406 171.820312 53.929688 171.851562 53.914062 Z M 174.796875 111.738281 C 174.796875 111.621094 174.820312 111.464844 174.789062 111.320312 C 174.699219 110.90625 174.804688 110.480469 174.671875 110.050781 C 174.589844 109.789062 174.511719 109.429688 174.734375 109.136719 C 174.765625 109.09375 174.726562 109 174.726562 108.929688 C 174.714844 108.617188 174.652344 108.289062 174.71875 107.988281 C 174.777344 107.707031 174.707031 107.46875 174.675781 107.203125 C 174.640625 106.933594 174.660156 106.652344 174.671875 106.378906 C 174.675781 106.160156 174.710938 105.945312 174.710938 105.726562 C 174.714844 105.554688 174.675781 105.378906 174.671875 105.203125 C 174.660156 104.738281 174.664062 104.273438 174.652344 103.808594 C 174.644531 103.460938 174.574219 103.121094 174.65625 102.761719 C 174.707031 102.53125 174.644531 102.269531 174.597656 102.027344 C 174.464844 101.3125 174.675781 100.578125 174.476562 99.867188 C 174.457031 99.800781 174.445312 99.707031 174.480469 99.65625 C 174.667969 99.390625 174.519531 99.113281 174.53125 98.839844 C 174.554688 98.386719 174.59375 97.929688 174.625 97.476562 C 174.640625 97.277344 174.652344 97.082031 174.652344 96.886719 C 174.648438 96.523438 174.625 96.160156 174.625 95.800781 C 174.625 95.464844 174.550781 95.140625 174.699219 94.792969 C 174.808594 94.542969 174.757812 94.222656 174.761719 93.933594 C 174.765625 93.710938 174.722656 93.484375 174.742188 93.265625 C 174.804688 92.660156 174.898438 92.058594 174.964844 91.453125 C 174.988281 91.257812 174.953125 91.058594 174.96875 90.863281 C 175.027344 90.238281 175.109375 89.617188 175.15625 88.988281 C 175.1875 88.621094 175.152344 88.246094 175.167969 87.875 C 175.1875 87.378906 175.21875 86.882812 175.253906 86.386719 C 175.277344 86.085938 175.285156 85.78125 175.363281 85.492188 C 175.5 84.972656 175.113281 84.414062 175.492188 83.921875 C 175.503906 83.90625 175.492188 83.875 175.492188 83.851562 C 175.527344 83.007812 175.570312 82.164062 175.597656 81.324219 C 175.609375 80.878906 175.636719 80.441406 175.785156 80.015625 C 175.8125 79.941406 175.820312 79.855469 175.820312 79.773438 C 175.816406 79.472656 175.796875 79.171875 175.804688 78.867188 C 175.808594 78.636719 175.839844 78.402344 175.882812 78.171875 C 175.980469 77.648438 175.910156 77.113281 175.976562 76.582031 C 176.039062 76.078125 176.046875 75.566406 176.144531 75.058594 C 176.21875 74.667969 176.253906 74.269531 176.316406 73.875 C 176.339844 73.75 176.421875 73.628906 176.425781 73.507812 C 176.429688 72.984375 176.386719 72.457031 176.417969 71.9375 C 176.453125 71.367188 176.550781 70.804688 176.613281 70.238281 C 176.65625 69.796875 176.683594 69.355469 176.722656 68.914062 C 176.742188 68.707031 176.75 68.496094 176.804688 68.300781 C 176.902344 67.96875 177.039062 67.648438 177.144531 67.316406 C 177.277344 66.902344 177.472656 66.542969 177.875 66.324219 C 178.160156 66.171875 178.425781 66.1875 178.6875 66.382812 C 178.902344 66.546875 179.039062 66.738281 179.09375 67.011719 C 179.132812 67.214844 179.234375 67.410156 179.300781 67.609375 C 179.515625 68.234375 179.695312 68.863281 179.710938 69.53125 C 179.71875 69.792969 179.78125 70.058594 179.832031 70.316406 C 179.859375 70.453125 179.929688 70.582031 179.957031 70.71875 C 180.066406 71.257812 180.179688 71.796875 180.265625 72.335938 C 180.378906 73.03125 180.46875 73.726562 180.5625 74.421875 C 180.601562 74.695312 180.605469 74.976562 180.644531 75.25 C 180.679688 75.492188 180.792969 75.738281 180.773438 75.972656 C 180.722656 76.589844 180.949219 77.144531 181.097656 77.722656 C 181.199219 78.128906 181.273438 78.542969 181.339844 78.957031 C 181.414062 79.429688 181.433594 79.914062 181.535156 80.378906 C 181.660156 80.96875 181.863281 81.542969 182 82.128906 C 182.109375 82.605469 182.167969 83.09375 182.246094 83.578125 C 182.277344 83.773438 182.289062 83.972656 182.316406 84.171875 C 182.402344 84.804688 182.589844 85.421875 182.664062 86.0625 C 182.71875 86.507812 182.738281 86.980469 182.871094 87.398438 C 183.113281 88.164062 183.046875 88.953125 183.183594 89.722656 C 183.316406 90.453125 183.390625 91.199219 183.476562 91.9375 C 183.53125 92.421875 183.667969 92.894531 183.625 93.390625 C 183.613281 93.535156 183.632812 93.707031 183.695312 93.835938 C 183.9375 94.332031 183.789062 94.875 183.917969 95.382812 C 184 95.695312 183.964844 96.035156 184.007812 96.359375 C 184.066406 96.777344 184.222656 97.191406 184.203125 97.597656 C 184.179688 98.039062 184.1875 98.484375 184.335938 98.875 C 184.523438 99.386719 184.457031 99.847656 184.308594 100.328125 C 184.238281 100.554688 184.25 100.761719 184.417969 100.953125 C 184.46875 101.007812 184.496094 101.101562 184.5 101.175781 C 184.5 101.628906 184.488281 102.082031 184.484375 102.535156 C 184.484375 102.605469 184.507812 102.671875 184.519531 102.742188 C 184.542969 102.890625 184.558594 103.042969 184.582031 103.191406 C 184.613281 103.390625 184.628906 103.589844 184.679688 103.78125 C 184.746094 104.050781 184.785156 104.3125 184.679688 104.574219 C 184.605469 104.765625 184.570312 104.9375 184.648438 105.148438 C 184.714844 105.324219 184.699219 105.535156 184.710938 105.726562 C 184.738281 106.089844 184.761719 106.453125 184.78125 106.816406 C 184.789062 106.953125 184.808594 107.097656 184.773438 107.226562 C 184.625 107.792969 184.742188 108.339844 184.867188 108.886719 C 184.875 108.929688 184.910156 109 184.933594 109 C 185.230469 109.003906 185.425781 109.265625 185.734375 109.289062 C 186.070312 109.316406 186.441406 109.300781 186.730469 109.566406 C 186.796875 109.628906 186.921875 109.628906 187.023438 109.65625 C 187.515625 109.789062 188.015625 109.90625 188.503906 110.058594 C 188.824219 110.15625 189.132812 110.308594 189.449219 110.417969 C 189.554688 110.453125 189.683594 110.445312 189.796875 110.433594 C 190.304688 110.398438 190.8125 110.335938 191.320312 110.316406 C 192.046875 110.289062 192.773438 110.386719 193.503906 110.328125 C 193.546875 110.324219 193.589844 110.359375 193.636719 110.363281 C 193.898438 110.390625 194.15625 110.414062 194.359375 110.433594 C 194.46875 109.882812 194.257812 109.421875 194.289062 108.925781 C 194.328125 108.355469 194.261719 107.777344 194.226562 107.203125 C 194.195312 106.75 194.171875 106.289062 194.085938 105.84375 C 194.015625 105.480469 193.9375 105.136719 194.066406 104.773438 C 194.082031 104.734375 194.078125 104.675781 194.0625 104.636719 C 193.925781 104.273438 193.996094 103.898438 193.964844 103.53125 C 193.910156 102.800781 193.792969 102.070312 193.761719 101.34375 C 193.742188 100.878906 193.726562 100.402344 193.722656 99.933594 C 193.722656 99.820312 193.683594 99.707031 193.675781 99.59375 C 193.65625 99.363281 193.636719 99.132812 193.628906 98.902344 C 193.617188 98.632812 193.640625 98.363281 193.617188 98.097656 C 193.574219 97.574219 193.535156 97.050781 193.441406 96.53125 C 193.34375 95.976562 193.28125 95.425781 193.351562 94.859375 C 193.359375 94.796875 193.324219 94.722656 193.296875 94.65625 C 192.960938 93.8125 193.121094 92.890625 192.898438 92.027344 C 192.867188 91.914062 192.921875 91.777344 192.933594 91.648438 C 192.941406 91.566406 192.945312 91.484375 192.9375 91.402344 C 192.855469 90.734375 192.769531 90.0625 192.679688 89.390625 C 192.671875 89.335938 192.648438 89.277344 192.636719 89.222656 C 192.597656 89.027344 192.539062 88.835938 192.527344 88.640625 C 192.496094 88.101562 192.515625 87.558594 192.289062 87.046875 C 192.261719 86.984375 192.261719 86.910156 192.253906 86.84375 C 192.214844 86.554688 192.164062 86.265625 192.140625 85.976562 C 192.101562 85.507812 192.082031 85.039062 192.054688 84.570312 C 192.046875 84.46875 192.03125 84.363281 192.015625 84.261719 C 191.925781 83.792969 191.820312 83.324219 191.75 82.851562 C 191.660156 82.261719 191.667969 81.648438 191.5 81.085938 C 191.378906 80.667969 191.398438 80.257812 191.339844 79.847656 C 191.28125 79.429688 191.292969 79 191.21875 78.585938 C 191.109375 77.953125 190.988281 77.320312 190.808594 76.707031 C 190.574219 75.914062 190.75 75.089844 190.5625 74.300781 C 190.554688 74.257812 190.558594 74.199219 190.574219 74.160156 C 190.738281 73.8125 190.570312 73.5 190.476562 73.179688 C 190.453125 73.101562 190.445312 73.019531 190.433594 72.941406 C 190.363281 72.46875 190.277344 71.996094 190.226562 71.519531 C 190.164062 70.921875 189.867188 70.390625 189.8125 69.777344 C 189.742188 68.957031 189.5625 68.136719 189.371094 67.328125 C 189.199219 66.582031 189.070312 65.824219 188.800781 65.09375 C 188.59375 64.53125 188.570312 63.898438 188.46875 63.296875 C 188.453125 63.207031 188.507812 63.070312 188.460938 63.027344 C 188.222656 62.800781 188.269531 62.484375 188.183594 62.214844 C 188.097656 61.9375 188.070312 61.644531 188.015625 61.359375 C 188 61.273438 187.996094 61.152344 187.941406 61.109375 C 187.773438 60.976562 187.777344 60.808594 187.78125 60.632812 C 187.78125 60.433594 187.78125 60.234375 187.78125 60 C 187.53125 59.933594 187.273438 59.867188 187.011719 59.796875 C 186.578125 59.675781 186.140625 59.554688 185.703125 59.429688 C 185.445312 59.355469 185.191406 59.277344 184.9375 59.199219 C 184.835938 59.167969 184.734375 59.140625 184.636719 59.101562 C 184.210938 58.933594 183.792969 58.734375 183.359375 58.597656 C 182.628906 58.359375 181.871094 58.199219 181.152344 57.9375 C 180.542969 57.714844 179.980469 57.355469 179.371094 57.121094 C 178.792969 56.902344 178.253906 56.632812 177.769531 56.246094 C 177.492188 56.027344 177.476562 55.960938 177.71875 55.695312 C 177.835938 55.570312 177.957031 55.449219 178.113281 55.28125 C 177.804688 55.132812 177.558594 55.007812 177.304688 54.886719 C 176.734375 54.613281 176.171875 54.328125 175.59375 54.078125 C 175.246094 53.925781 174.871094 53.832031 174.507812 53.722656 C 174.472656 53.710938 174.417969 53.75 174.378906 53.773438 C 174.066406 53.949219 173.703125 54.046875 173.480469 54.363281 C 173.398438 54.476562 173.28125 54.566406 173.175781 54.660156 C 172.738281 55.03125 172.027344 55.058594 171.734375 54.628906 C 171.46875 54.671875 171.214844 54.722656 170.960938 54.753906 C 170.519531 54.804688 170.433594 54.707031 170.539062 54.253906 C 170.238281 54.394531 169.957031 54.332031 169.6875 54.210938 C 169.492188 54.121094 169.316406 53.972656 169.117188 53.914062 C 168.734375 53.804688 168.386719 53.65625 168.21875 53.335938 C 167.820312 53.414062 167.46875 53.484375 167.117188 53.550781 C 166.90625 53.589844 166.765625 53.691406 166.789062 53.929688 C 166.820312 54.257812 166.773438 54.574219 166.738281 54.898438 C 166.65625 55.664062 166.6875 56.445312 166.664062 57.21875 C 166.648438 57.8125 166.769531 58.421875 166.515625 58.996094 C 166.5 59.039062 166.492188 59.09375 166.503906 59.136719 C 166.625 59.503906 166.550781 59.875 166.527344 60.25 C 166.5 60.6875 166.429688 61.132812 166.574219 61.570312 C 166.597656 61.648438 166.546875 61.757812 166.507812 61.839844 C 166.246094 62.390625 166.316406 62.980469 166.285156 63.558594 C 166.257812 64.078125 166.4375 64.605469 166.222656 65.121094 C 166.1875 65.210938 166.214844 65.324219 166.214844 65.425781 C 166.214844 65.507812 166.253906 65.601562 166.222656 65.664062 C 166.050781 66.03125 166.15625 66.425781 166.105469 66.800781 C 166.070312 67.046875 166.113281 67.300781 166.082031 67.542969 C 166.007812 68.183594 165.90625 68.816406 165.820312 69.453125 C 165.800781 69.605469 165.816406 69.761719 165.808594 69.914062 C 165.796875 70.066406 165.777344 70.214844 165.757812 70.367188 C 165.726562 70.632812 165.691406 70.898438 165.664062 71.160156 C 165.652344 71.242188 165.679688 71.34375 165.640625 71.402344 C 165.484375 71.636719 165.554688 71.878906 165.582031 72.121094 C 165.601562 72.304688 165.710938 72.523438 165.644531 72.664062 C 165.503906 72.960938 165.519531 73.25 165.519531 73.554688 C 165.519531 74.144531 165.515625 74.734375 165.511719 75.324219 C 165.507812 75.519531 165.503906 75.714844 165.476562 75.90625 C 165.4375 76.230469 165.378906 76.550781 165.332031 76.875 C 165.261719 77.40625 165.164062 77.933594 165.273438 78.472656 C 165.289062 78.539062 165.269531 78.617188 165.25 78.683594 C 164.976562 79.4375 165.28125 80.207031 165.21875 80.96875 C 165.199219 81.246094 165.273438 81.527344 165.140625 81.800781 C 165.117188 81.84375 165.160156 81.914062 165.15625 81.96875 C 165.15625 82.09375 165.152344 82.21875 165.132812 82.34375 C 165.078125 82.769531 165.011719 83.195312 164.960938 83.621094 C 164.9375 83.839844 164.941406 84.058594 164.933594 84.277344 C 164.921875 84.71875 164.785156 85.15625 164.898438 85.609375 C 164.949219 85.816406 164.929688 86.042969 164.789062 86.246094 C 164.714844 86.351562 164.699219 86.507812 164.6875 86.644531 C 164.65625 87.050781 164.695312 87.472656 164.597656 87.859375 C 164.414062 88.59375 164.417969 89.332031 164.429688 90.078125 C 164.429688 90.230469 164.457031 90.394531 164.402344 90.527344 C 164.257812 90.882812 164.335938 91.238281 164.347656 91.597656 C 164.359375 92.117188 164.332031 92.640625 164.292969 93.160156 C 164.253906 93.632812 164.140625 94.101562 164.121094 94.574219 C 164.09375 95.207031 163.878906 95.839844 164.085938 96.476562 C 164.113281 96.566406 164.109375 96.667969 164.101562 96.757812 C 164.0625 97.1875 164.011719 97.613281 163.976562 98.042969 C 163.964844 98.195312 163.980469 98.347656 163.980469 98.5 C 163.976562 98.953125 163.96875 99.402344 163.972656 99.851562 C 163.972656 99.976562 164.019531 100.101562 164.03125 100.226562 C 164.058594 100.550781 164.113281 100.878906 164.097656 101.203125 C 164.085938 101.601562 163.972656 102 163.976562 102.398438 C 163.984375 102.933594 164.066406 103.46875 164.113281 104.003906 C 164.132812 104.257812 164.183594 104.519531 164.136719 104.761719 C 164.078125 105.082031 164.09375 105.378906 164.152344 105.6875 C 164.269531 106.320312 164.449219 106.941406 164.410156 107.59375 C 164.402344 107.746094 164.386719 107.902344 164.40625 108.050781 C 164.457031 108.460938 164.640625 108.867188 164.394531 109.277344 C 164.351562 109.347656 164.382812 109.460938 164.390625 109.554688 C 164.410156 109.917969 164.445312 110.277344 164.457031 110.640625 C 164.46875 111.027344 164.671875 111.242188 165.058594 111.253906 C 165.1875 111.261719 165.3125 111.304688 165.4375 111.324219 C 165.664062 111.359375 165.902344 111.359375 166.117188 111.425781 C 166.390625 111.507812 166.636719 111.402344 166.898438 111.386719 C 167.445312 111.351562 167.992188 111.3125 168.539062 111.289062 C 168.691406 111.28125 168.84375 111.296875 168.992188 111.328125 C 169.785156 111.480469 170.574219 111.644531 171.367188 111.792969 C 171.640625 111.847656 171.925781 111.839844 172.195312 111.902344 C 172.503906 111.976562 172.796875 112.097656 173.097656 112.199219 C 173.53125 112.339844 173.925781 112.21875 174.304688 112.007812 C 174.457031 111.921875 174.609375 111.839844 174.796875 111.738281 Z M 181.570312 57.070312 C 181.796875 57.15625 182 57.25 182.210938 57.308594 C 182.789062 57.460938 183.375 57.574219 183.941406 57.746094 C 184.441406 57.898438 184.972656 57.945312 185.441406 58.207031 C 185.488281 58.234375 185.558594 58.210938 185.613281 58.222656 C 185.78125 58.253906 185.949219 58.273438 186.109375 58.324219 C 186.265625 58.371094 186.40625 58.476562 186.5625 58.507812 C 187.214844 58.644531 187.867188 58.773438 188.523438 58.882812 C 188.925781 58.949219 189.332031 58.984375 189.738281 59.019531 C 190.25 59.066406 190.75 59.175781 191.273438 59.097656 C 191.664062 59.042969 192.066406 59.050781 192.464844 59.03125 C 192.613281 59.027344 192.765625 59.039062 192.910156 59.023438 C 193.34375 58.96875 193.773438 58.910156 194.203125 58.847656 C 194.476562 58.808594 194.757812 58.777344 195.027344 58.707031 C 195.460938 58.589844 195.890625 58.441406 196.320312 58.3125 C 196.351562 58.300781 196.394531 58.316406 196.425781 58.308594 C 196.738281 58.242188 197.089844 58.238281 197.359375 58.089844 C 197.949219 57.765625 198.589844 57.519531 199.101562 57.054688 C 199.589844 56.613281 200.074219 56.164062 200.347656 55.546875 C 200.75 54.628906 200.96875 53.652344 201.171875 52.675781 C 201.253906 52.289062 201.265625 51.878906 201.242188 51.484375 C 201.214844 51.03125 201.089844 50.585938 201.046875 50.132812 C 200.980469 49.390625 200.707031 48.707031 200.492188 48.003906 C 200.421875 47.773438 200.386719 47.527344 200.328125 47.292969 C 200.296875 47.164062 200.246094 47.039062 200.199219 46.914062 C 200.179688 46.863281 200.113281 46.8125 200.117188 46.765625 C 200.144531 46.523438 200.003906 46.347656 199.898438 46.152344 C 199.777344 45.925781 199.671875 45.691406 199.578125 45.453125 C 199.402344 44.992188 199.246094 44.527344 199.070312 44.070312 C 199 43.886719 198.910156 43.703125 198.804688 43.535156 C 198.605469 43.214844 198.382812 42.90625 198.179688 42.585938 C 197.933594 42.191406 197.707031 41.785156 197.457031 41.390625 C 197.40625 41.308594 197.300781 41.257812 197.21875 41.191406 C 197.113281 41.101562 196.9375 41.023438 196.917969 40.917969 C 196.847656 40.511719 196.578125 40.222656 196.367188 39.90625 C 196.144531 39.570312 195.847656 39.28125 195.574219 38.976562 C 195.363281 38.742188 195.136719 38.527344 194.921875 38.292969 C 194.769531 38.125 194.636719 37.929688 194.476562 37.765625 C 194.195312 37.472656 193.878906 37.207031 193.609375 36.898438 C 193.304688 36.550781 193.09375 36.113281 192.625 35.933594 C 192.59375 35.921875 192.5625 35.894531 192.539062 35.871094 C 192.179688 35.484375 191.835938 35.085938 191.460938 34.71875 C 190.949219 34.21875 190.417969 33.742188 189.886719 33.265625 C 189.363281 32.800781 188.828125 32.351562 188.296875 31.902344 C 187.886719 31.558594 187.476562 31.207031 187.042969 30.894531 C 186.707031 30.648438 186.332031 30.453125 185.972656 30.242188 C 185.875 30.183594 185.773438 30.136719 185.671875 30.078125 C 185.300781 29.859375 184.9375 29.625 184.558594 29.417969 C 184.109375 29.171875 183.644531 28.949219 183.1875 28.707031 C 182.882812 28.546875 182.582031 28.378906 182.199219 28.167969 C 182.230469 28.453125 182.265625 28.644531 182.265625 28.835938 C 182.269531 29.796875 182.261719 30.757812 182.257812 31.71875 C 182.257812 32.179688 182.285156 32.648438 182.242188 33.105469 C 182.210938 33.429688 182.199219 33.734375 182.285156 34.046875 C 182.320312 34.183594 182.355469 34.320312 182.375 34.460938 C 182.460938 35.140625 182.550781 35.824219 182.617188 36.507812 C 182.683594 37.25 183.140625 37.855469 183.304688 38.5625 C 183.308594 38.582031 183.335938 38.597656 183.347656 38.621094 C 183.464844 38.84375 183.585938 39.066406 183.699219 39.296875 C 183.84375 39.589844 184.042969 39.777344 184.359375 39.617188 C 184.449219 39.570312 184.566406 39.5625 184.667969 39.570312 C 184.996094 39.59375 185.328125 39.605469 185.644531 39.675781 C 186.074219 39.765625 186.496094 39.898438 186.914062 40.027344 C 186.984375 40.050781 187.039062 40.132812 187.097656 40.183594 C 187.160156 40.238281 187.222656 40.332031 187.289062 40.335938 C 187.609375 40.351562 187.851562 40.5625 188.136719 40.640625 C 188.558594 40.757812 188.917969 40.960938 189.269531 41.199219 C 189.53125 41.375 189.789062 41.554688 190.0625 41.71875 C 190.535156 42 191.015625 42.269531 191.488281 42.550781 C 191.546875 42.585938 191.597656 42.644531 191.640625 42.699219 C 192.085938 43.238281 192.542969 43.773438 192.972656 44.324219 C 193.121094 44.515625 193.183594 44.769531 193.328125 44.964844 C 193.789062 45.597656 194.117188 46.296875 194.414062 47.011719 C 194.550781 47.347656 194.625 47.703125 194.75 48.042969 C 195.054688 48.882812 195.226562 49.726562 194.914062 50.605469 C 194.820312 50.871094 194.679688 51.125 194.628906 51.394531 C 194.539062 51.871094 194.289062 52.222656 193.925781 52.519531 C 193.496094 52.867188 193.0625 53.203125 192.511719 53.324219 C 191.691406 53.507812 190.871094 53.683594 190.050781 53.863281 C 189.980469 53.878906 189.914062 53.890625 189.84375 53.894531 C 189.335938 53.921875 188.832031 53.925781 188.320312 53.859375 C 187.835938 53.792969 187.339844 53.769531 186.847656 53.742188 C 186.746094 53.734375 186.640625 53.78125 186.484375 53.8125 C 186.324219 53.625 186.027344 53.558594 185.71875 53.523438 C 185.617188 53.511719 185.488281 53.542969 185.414062 53.492188 C 184.949219 53.167969 184.382812 53.183594 183.875 53.011719 C 183.804688 52.988281 183.722656 52.992188 183.703125 52.988281 C 183.625 53.398438 183.578125 53.789062 183.472656 54.160156 C 183.40625 54.386719 183.257812 54.59375 183.128906 54.796875 C 182.988281 55.023438 182.824219 55.234375 182.671875 55.457031 C 182.59375 55.570312 182.542969 55.703125 182.460938 55.820312 C 182.171875 56.234375 181.875 56.640625 181.570312 57.070312 Z M 167.105469 28.589844 C 166.929688 28.652344 166.785156 28.691406 166.652344 28.75 C 166.34375 28.894531 166.03125 29.023438 165.742188 29.199219 C 165.25 29.496094 164.644531 29.488281 164.160156 29.824219 C 163.921875 29.988281 163.585938 30.011719 163.335938 30.164062 C 162.875 30.4375 162.382812 30.636719 161.882812 30.808594 C 161.566406 30.917969 161.214844 30.964844 160.929688 31.128906 C 160.492188 31.386719 159.925781 31.273438 159.539062 31.652344 C 159.519531 31.671875 159.472656 31.667969 159.4375 31.667969 C 159.019531 31.679688 158.640625 31.792969 158.253906 31.957031 C 157.824219 32.140625 157.414062 32.433594 156.902344 32.367188 C 156.875 32.363281 156.839844 32.394531 156.808594 32.410156 C 156.445312 32.589844 156.078125 32.765625 155.714844 32.949219 C 155.140625 33.230469 154.464844 33.242188 153.9375 33.636719 C 153.917969 33.648438 153.890625 33.640625 153.867188 33.648438 C 152.953125 33.941406 152.046875 34.246094 151.128906 34.523438 C 150.152344 34.820312 149.484375 35.617188 148.605469 36.070312 C 148.59375 36.074219 148.589844 36.085938 148.582031 36.097656 C 148.054688 36.683594 147.402344 37.121094 146.78125 37.597656 C 146.679688 37.671875 146.605469 37.777344 146.519531 37.871094 C 146.191406 38.238281 145.863281 38.605469 145.535156 38.96875 C 145.238281 39.304688 144.925781 39.621094 144.648438 39.972656 C 144.410156 40.28125 144.21875 40.625 143.992188 40.945312 C 143.878906 41.109375 143.714844 41.234375 143.621094 41.40625 C 143.179688 42.226562 142.746094 43.054688 142.320312 43.886719 C 141.984375 44.542969 141.667969 45.210938 141.339844 45.871094 C 141.289062 45.976562 141.261719 46.101562 141.1875 46.183594 C 140.8125 46.613281 140.796875 47.1875 140.578125 47.683594 C 140.453125 47.964844 140.445312 48.296875 140.382812 48.605469 C 140.332031 48.855469 140.273438 49.101562 140.226562 49.355469 C 140.1875 49.5625 140.1875 49.777344 140.132812 49.980469 C 140.011719 50.414062 139.988281 50.851562 140.023438 51.300781 C 140.039062 51.507812 139.988281 51.722656 139.953125 51.929688 C 139.917969 52.15625 139.828125 52.378906 139.820312 52.609375 C 139.800781 53.136719 139.832031 53.664062 139.808594 54.191406 C 139.777344 54.832031 140.03125 55.402344 140.179688 56 C 140.285156 56.429688 140.355469 56.875 140.613281 57.25 C 140.628906 57.277344 140.613281 57.320312 140.617188 57.355469 C 140.652344 57.566406 140.65625 57.789062 140.734375 57.980469 C 140.863281 58.292969 141.042969 58.582031 141.226562 58.925781 C 141.363281 58.769531 141.457031 58.679688 141.53125 58.578125 C 141.785156 58.230469 142.03125 57.875 142.289062 57.527344 C 142.320312 57.480469 142.378906 57.453125 142.429688 57.425781 C 142.792969 57.214844 143.160156 57.007812 143.523438 56.796875 C 143.71875 56.6875 143.894531 56.527344 144.101562 56.464844 C 144.601562 56.308594 145.117188 56.199219 145.648438 56.066406 C 145.625 55.894531 145.589844 55.726562 145.574219 55.558594 C 145.542969 55.210938 145.511719 54.863281 145.503906 54.519531 C 145.496094 54.066406 145.371094 53.613281 145.53125 53.167969 C 145.320312 52.558594 145.609375 51.988281 145.703125 51.414062 C 145.800781 50.792969 146.019531 50.195312 146.175781 49.585938 C 146.296875 49.109375 146.433594 48.644531 146.777344 48.269531 C 146.847656 48.195312 146.851562 48.054688 146.867188 47.941406 C 146.90625 47.675781 146.894531 47.402344 147.109375 47.1875 C 147.195312 47.101562 147.226562 46.957031 147.292969 46.847656 C 147.40625 46.65625 147.515625 46.464844 147.644531 46.285156 C 147.914062 45.894531 148.207031 45.511719 148.472656 45.117188 C 148.769531 44.683594 149.039062 44.234375 149.445312 43.882812 C 149.976562 43.425781 150.484375 42.9375 151.007812 42.46875 C 151.339844 42.167969 151.648438 41.835938 152.015625 41.585938 C 152.441406 41.296875 152.910156 41.078125 153.367188 40.835938 C 153.863281 40.574219 154.363281 40.324219 154.859375 40.0625 C 155.28125 39.835938 155.699219 39.597656 156.117188 39.367188 C 156.222656 39.3125 156.324219 39.25 156.4375 39.214844 C 156.949219 39.058594 157.46875 38.917969 157.980469 38.753906 C 158.445312 38.605469 158.902344 38.417969 159.375 38.277344 C 159.890625 38.121094 160.433594 38.046875 160.933594 37.851562 C 161.441406 37.652344 161.996094 37.6875 162.503906 37.417969 C 162.882812 37.214844 163.386719 37.199219 163.839844 37.1875 C 164.589844 37.167969 165.234375 37.453125 165.699219 38.066406 C 165.875 38.296875 166.027344 38.542969 166.175781 38.761719 C 166.265625 38.503906 166.375 38.230469 166.457031 37.949219 C 166.53125 37.707031 166.523438 37.425781 166.640625 37.210938 C 166.796875 36.929688 166.824219 36.632812 166.882812 36.335938 C 166.925781 36.128906 166.929688 35.914062 166.996094 35.714844 C 167.238281 34.96875 167.433594 34.214844 167.523438 33.433594 C 167.554688 33.15625 167.621094 32.863281 167.578125 32.59375 C 167.519531 32.203125 167.425781 31.824219 167.417969 31.417969 C 167.40625 30.703125 167.304688 29.988281 167.230469 29.273438 C 167.207031 29.058594 167.152344 28.84375 167.105469 28.589844 Z M 166.261719 46.34375 C 166.234375 46.144531 166.257812 45.9375 166.167969 45.808594 C 165.9375 45.460938 166 45.089844 166.003906 44.71875 C 166.007812 44.5 165.90625 44.253906 165.972656 44.0625 C 166.109375 43.671875 165.9375 43.304688 165.960938 42.921875 C 165.980469 42.507812 165.894531 42.085938 165.847656 41.667969 C 165.835938 41.578125 165.789062 41.488281 165.773438 41.398438 C 165.734375 41.207031 165.714844 41.011719 165.671875 40.820312 C 165.597656 40.484375 165.558594 40.128906 165.421875 39.816406 C 165.261719 39.449219 165.015625 39.117188 164.808594 38.769531 C 164.507812 38.25 163.796875 38.074219 163.289062 38.394531 C 163.214844 38.441406 163.128906 38.484375 163.042969 38.507812 C 162.367188 38.699219 161.6875 38.875 161.015625 39.066406 C 160.476562 39.214844 159.929688 39.355469 159.402344 39.539062 C 158.949219 39.695312 158.515625 39.902344 158.074219 40.09375 C 157.949219 40.148438 157.832031 40.222656 157.703125 40.273438 C 157.304688 40.441406 156.878906 40.5625 156.511719 40.777344 C 156.222656 40.945312 155.9375 41.078125 155.621094 41.152344 C 155.554688 41.167969 155.492188 41.207031 155.433594 41.242188 C 155.074219 41.476562 154.71875 41.714844 154.359375 41.949219 C 154.191406 42.058594 154.03125 42.222656 153.851562 42.257812 C 153.3125 42.371094 152.9375 42.753906 152.484375 43.003906 C 152.363281 43.070312 152.175781 43.078125 152.105469 43.171875 C 151.863281 43.496094 151.550781 43.722656 151.242188 43.972656 C 150.886719 44.253906 150.585938 44.605469 150.265625 44.933594 C 150.070312 45.136719 149.882812 45.347656 149.703125 45.566406 C 149.578125 45.714844 149.457031 45.871094 149.359375 46.035156 C 149.136719 46.402344 148.933594 46.78125 148.714844 47.152344 C 148.464844 47.582031 148.175781 47.996094 147.960938 48.445312 C 147.722656 48.9375 147.589844 49.480469 147.335938 49.964844 C 146.996094 50.613281 147.011719 51.328125 146.851562 52.007812 C 146.726562 52.539062 146.726562 53.085938 146.742188 53.636719 C 146.757812 54.269531 146.777344 54.898438 146.875 55.523438 C 146.933594 55.898438 147.027344 56.253906 147.152344 56.609375 C 147.414062 57.347656 147.605469 58.09375 147.167969 58.835938 C 147.054688 59.027344 146.882812 59.183594 146.730469 59.367188 C 147 59.667969 147.230469 60.039062 147.558594 60.253906 C 148.035156 60.5625 148.582031 60.761719 149.105469 61 C 149.292969 61.085938 149.488281 61.148438 149.691406 61.226562 C 149.894531 60.847656 149.929688 60.570312 149.683594 60.175781 C 149.402344 59.71875 149.074219 59.261719 149.039062 58.648438 C 149.011719 58.175781 148.90625 57.71875 149.023438 57.238281 C 149.148438 56.707031 149.15625 56.164062 149.414062 55.648438 C 149.648438 55.183594 150 54.835938 150.324219 54.457031 C 150.367188 54.40625 150.441406 54.363281 150.503906 54.359375 C 150.796875 54.34375 151.082031 54.3125 151.367188 54.445312 C 151.738281 54.621094 152.125 54.753906 152.492188 54.894531 C 152.742188 54.507812 152.933594 54.128906 153.199219 53.8125 C 153.636719 53.289062 154.199219 52.9375 154.886719 52.804688 C 154.851562 52.625 154.820312 52.464844 154.785156 52.304688 C 154.730469 52.054688 155.003906 51.378906 155.242188 51.300781 C 155.558594 51.191406 155.777344 50.925781 156.140625 50.867188 C 156.527344 50.804688 156.875 50.753906 157.207031 50.976562 C 157.382812 51.09375 157.539062 51.101562 157.734375 51.03125 C 157.917969 50.964844 158.125 50.960938 158.320312 50.925781 C 158.429688 50.902344 158.539062 50.863281 158.652344 50.835938 C 158.929688 50.769531 159.210938 50.648438 159.484375 50.65625 C 159.886719 50.671875 160.273438 50.699219 160.640625 50.503906 C 160.691406 50.476562 160.753906 50.464844 160.8125 50.460938 C 161.394531 50.421875 161.898438 50.257812 162.117188 49.640625 C 162.144531 49.5625 162.207031 49.480469 162.191406 49.414062 C 162.144531 49.214844 162.21875 49.082031 162.351562 48.941406 C 162.445312 48.84375 162.488281 48.699219 162.558594 48.578125 C 162.65625 48.410156 162.734375 48.230469 162.859375 48.085938 C 163.125 47.773438 163.410156 47.480469 163.695312 47.1875 C 163.757812 47.121094 163.84375 47.066406 163.929688 47.039062 C 164.382812 46.886719 164.789062 46.59375 165.292969 46.597656 C 165.355469 46.597656 165.429688 46.550781 165.480469 46.507812 C 165.636719 46.378906 165.804688 46.332031 166.007812 46.378906 C 166.078125 46.394531 166.160156 46.359375 166.261719 46.34375 Z M 186.519531 52.480469 C 187.03125 52.558594 187.496094 52.632812 187.960938 52.695312 C 188.207031 52.730469 188.453125 52.757812 188.699219 52.753906 C 189.03125 52.746094 189.371094 52.664062 189.699219 52.691406 C 190.363281 52.742188 190.960938 52.585938 191.558594 52.308594 C 191.792969 52.199219 192.09375 52.199219 192.332031 52.042969 C 192.351562 52.027344 192.398438 52.054688 192.433594 52.050781 C 192.566406 52.03125 192.714844 52.035156 192.835938 51.984375 C 193.3125 51.78125 193.585938 51.398438 193.734375 50.914062 C 193.816406 50.640625 193.824219 50.347656 193.890625 50.078125 C 193.960938 49.78125 193.988281 49.5 193.921875 49.214844 C 193.78125 48.605469 193.582031 48.015625 193.382812 47.421875 C 193.1875 46.855469 192.984375 46.296875 192.683594 45.777344 C 192.457031 45.382812 192.285156 44.960938 191.941406 44.632812 C 191.644531 44.351562 191.402344 44.015625 191.113281 43.722656 C 190.925781 43.53125 190.714844 43.363281 190.496094 43.207031 C 190.144531 42.953125 189.757812 42.742188 189.421875 42.46875 C 188.710938 41.882812 187.929688 41.414062 187.0625 41.121094 C 186.402344 40.898438 185.707031 40.761719 185.027344 40.59375 C 184.722656 40.519531 184.230469 40.753906 184.179688 41.019531 C 184.039062 41.785156 183.679688 42.515625 183.890625 43.335938 C 183.992188 43.742188 183.988281 44.175781 184.054688 44.59375 C 184.09375 44.84375 184.171875 45.089844 184.238281 45.335938 C 184.359375 45.785156 184.464844 46.230469 184.515625 46.695312 C 184.542969 46.992188 184.589844 47.285156 184.496094 47.554688 C 184.421875 47.773438 184.492188 47.910156 184.582031 48.070312 C 184.925781 48.675781 185.339844 49.25 185.597656 49.890625 C 185.941406 50.734375 186.425781 51.53125 186.519531 52.480469 Z M 171.320312 45.691406 C 170.824219 45.882812 170.378906 46.058594 169.933594 46.226562 C 169.730469 46.304688 169.507812 46.351562 169.3125 46.453125 C 169 46.613281 168.695312 46.769531 168.324219 46.746094 C 168.199219 46.738281 168.070312 46.78125 167.945312 46.808594 C 167.753906 46.855469 167.566406 46.910156 167.375 46.957031 C 167.226562 46.992188 167.058594 46.988281 166.929688 47.054688 C 166.503906 47.273438 166.035156 47.316406 165.585938 47.433594 C 165.109375 47.558594 164.652344 47.804688 164.222656 48.058594 C 163.753906 48.332031 163.496094 48.8125 163.289062 49.292969 C 163.09375 49.742188 162.957031 50.214844 162.675781 50.625 C 162.496094 50.886719 162.34375 51.144531 161.957031 51.167969 C 161.65625 51.1875 161.359375 51.308594 161.0625 51.386719 C 160.632812 51.5 160.230469 51.703125 159.773438 51.722656 C 159.601562 51.730469 159.429688 51.730469 159.257812 51.75 C 158.761719 51.804688 158.285156 51.980469 157.777344 51.929688 C 157.703125 51.921875 157.628906 51.941406 157.527344 51.949219 C 157.648438 52.191406 157.75 52.398438 157.847656 52.597656 C 158.117188 52.554688 158.390625 52.445312 158.640625 52.488281 C 159.09375 52.570312 159.519531 52.414062 159.957031 52.417969 C 160.144531 52.417969 160.335938 52.417969 160.519531 52.394531 C 160.925781 52.339844 161.332031 52.269531 161.734375 52.207031 C 161.882812 52.183594 162.039062 52.128906 162.179688 52.152344 C 162.660156 52.238281 163.125 52.402344 163.480469 52.738281 C 163.859375 53.09375 164.277344 53.253906 164.78125 53.199219 C 165.289062 53.144531 165.824219 53.242188 166.289062 52.9375 C 166.339844 52.90625 166.4375 52.894531 166.492188 52.921875 C 166.730469 53.03125 166.953125 52.9375 167.179688 52.886719 C 167.394531 52.835938 167.609375 52.789062 167.828125 52.757812 C 168.058594 52.722656 168.195312 52.609375 168.1875 52.367188 C 168.1875 52.203125 168.171875 52.042969 168.15625 51.878906 C 168.109375 51.308594 168.09375 50.730469 168.003906 50.164062 C 167.953125 49.859375 167.789062 49.574219 167.667969 49.28125 C 167.597656 49.105469 167.527344 48.929688 167.714844 48.785156 C 167.496094 48.539062 167.488281 48.320312 167.691406 48.230469 C 167.933594 48.121094 168.179688 47.992188 168.4375 47.933594 C 169.109375 47.78125 169.773438 47.628906 170.410156 47.34375 C 170.949219 47.105469 171.542969 46.996094 172.183594 46.8125 C 171.875 46.40625 171.585938 46.035156 171.320312 45.691406 Z M 171.601562 22.210938 C 171.972656 22.226562 172.28125 22.1875 172.546875 22.269531 C 172.808594 22.351562 173.039062 22.355469 173.300781 22.339844 C 173.644531 22.316406 174.003906 22.238281 174.320312 22.539062 C 174.542969 22.753906 174.839844 22.890625 174.957031 23.207031 C 174.976562 23.257812 175.042969 23.292969 175.105469 23.355469 C 175.222656 23.148438 175.324219 22.976562 175.421875 22.800781 C 175.621094 22.433594 175.898438 22.078125 175.992188 21.683594 C 176.132812 21.074219 176.476562 20.566406 176.691406 20 C 176.753906 19.828125 176.859375 19.671875 176.949219 19.503906 C 176.617188 18.980469 176.601562 18.914062 176.542969 18.257812 C 176.511719 17.925781 176.457031 17.59375 176.40625 17.238281 C 175.328125 17.621094 174.285156 17.507812 173.269531 17.359375 C 172.988281 18.003906 172.707031 18.636719 172.425781 19.28125 C 172.589844 19.371094 172.730469 19.453125 172.871094 19.53125 C 173.027344 19.617188 173.140625 19.710938 173.0625 19.921875 C 172.988281 20.121094 172.875 20.210938 172.664062 20.175781 C 172.558594 20.160156 172.453125 20.152344 172.347656 20.15625 C 171.976562 20.164062 171.71875 20.488281 171.839844 20.839844 C 171.921875 21.066406 171.851562 21.246094 171.789062 21.445312 C 171.710938 21.699219 171.660156 21.957031 171.601562 22.210938 Z M 174.410156 36.0625 C 174.441406 36.074219 174.476562 36.082031 174.511719 36.09375 C 174.621094 35.941406 174.742188 35.796875 174.84375 35.640625 C 175.089844 35.269531 175.367188 34.914062 175.5625 34.519531 C 175.976562 33.675781 176.417969 32.847656 176.753906 31.964844 C 177.058594 31.171875 177.230469 30.328125 177.660156 29.582031 C 177.707031 29.496094 177.703125 29.378906 177.722656 29.277344 C 177.734375 29.195312 177.722656 29.105469 177.757812 29.035156 C 177.910156 28.722656 178.082031 28.417969 178.230469 28.101562 C 178.417969 27.714844 178.59375 27.320312 178.773438 26.929688 C 178.742188 26.910156 178.707031 26.890625 178.675781 26.871094 C 178.636719 26.921875 178.601562 26.96875 178.5625 27.019531 C 178.335938 27.300781 178.15625 27.636719 177.875 27.851562 C 177.464844 28.164062 176.984375 28.390625 176.546875 28.644531 C 176.648438 29.316406 176.351562 29.558594 175.738281 29.332031 C 175.292969 29.167969 174.828125 29.144531 174.363281 29.105469 C 174.050781 29.082031 174.011719 29.175781 174.070312 29.492188 C 174.167969 30.015625 174.269531 30.542969 174.3125 31.074219 C 174.347656 31.488281 174.289062 31.910156 174.285156 32.328125 C 174.28125 32.585938 174.316406 32.839844 174.3125 33.097656 C 174.3125 33.382812 174.265625 33.671875 174.269531 33.957031 C 174.277344 34.558594 174.300781 35.15625 174.328125 35.757812 C 174.332031 35.859375 174.378906 35.960938 174.410156 36.0625 Z M 177.714844 50.378906 C 178.4375 50.921875 179.289062 51.042969 180.0625 51.394531 C 180.164062 50.925781 180.472656 50.707031 180.789062 50.816406 C 181.597656 51.09375 182.40625 51.371094 183.214844 51.644531 C 183.3125 51.675781 183.421875 51.667969 183.523438 51.6875 C 183.683594 51.714844 183.84375 51.730469 184 51.777344 C 184.464844 51.914062 184.921875 52.097656 185.441406 52.117188 C 185.40625 51.996094 185.375 51.90625 185.351562 51.816406 C 185.175781 51.128906 184.621094 50.617188 184.484375 49.917969 C 184.476562 49.882812 184.445312 49.855469 184.429688 49.824219 C 184.355469 49.671875 184.265625 49.519531 184.210938 49.359375 C 184.097656 49.015625 184.035156 48.652344 183.789062 48.390625 C 183.398438 48.460938 183.027344 48.515625 182.664062 48.605469 C 182.4375 48.660156 182.226562 48.769531 182.007812 48.851562 C 181.8125 48.925781 181.621094 49.023438 181.417969 49.058594 C 181.132812 49.109375 180.839844 49.101562 180.550781 49.132812 C 179.878906 49.207031 179.203125 49.285156 178.53125 49.375 C 178.449219 49.390625 178.320312 49.507812 178.3125 49.589844 C 178.265625 49.960938 178.128906 50.242188 177.714844 50.378906 Z M 172.390625 47.570312 C 171.859375 47.707031 171.371094 47.828125 170.882812 47.960938 C 170.503906 48.066406 170.136719 48.207031 169.753906 48.300781 C 169.335938 48.402344 168.90625 48.464844 168.484375 48.558594 C 168.367188 48.582031 168.257812 48.644531 168.128906 48.695312 C 168.207031 48.851562 168.28125 48.960938 168.316406 49.082031 C 168.4375 49.484375 168.582031 49.886719 168.640625 50.296875 C 168.730469 50.914062 168.753906 51.542969 168.808594 52.148438 C 169.015625 52.058594 169.234375 52.007812 169.40625 51.886719 C 169.917969 51.519531 170.414062 51.125 170.914062 50.738281 C 171.46875 50.308594 171.917969 49.785156 172.167969 49.128906 C 172.316406 48.734375 172.375 48.300781 172.460938 47.882812 C 172.476562 47.804688 172.425781 47.707031 172.390625 47.570312 Z M 180.820312 51.976562 C 180.773438 52.136719 180.710938 52.273438 180.699219 52.417969 C 180.652344 52.90625 180.664062 53.40625 180.257812 53.773438 C 180.222656 53.804688 180.214844 53.859375 180.195312 53.898438 C 180.042969 54.179688 179.90625 54.464844 179.605469 54.628906 C 179.527344 54.667969 179.476562 54.761719 179.425781 54.839844 C 179.308594 55.007812 179.21875 55.195312 179.085938 55.347656 C 178.933594 55.519531 178.75 55.664062 178.582031 55.816406 C 179.171875 56.304688 179.902344 56.363281 180.539062 56.644531 C 180.605469 56.671875 180.738281 56.644531 180.792969 56.589844 C 180.988281 56.414062 181.199219 56.238281 181.34375 56.023438 C 181.691406 55.511719 182.007812 54.976562 182.335938 54.449219 C 182.386719 54.371094 182.433594 54.285156 182.496094 54.21875 C 182.855469 53.832031 183.007812 53.347656 183.160156 52.863281 C 182.390625 52.570312 181.636719 52.285156 180.820312 51.976562 Z M 149.460938 61.847656 C 149.066406 61.675781 148.699219 61.453125 148.296875 61.355469 C 147.644531 61.203125 147.105469 60.894531 146.671875 60.390625 C 146.496094 60.1875 146.320312 59.980469 146.128906 59.792969 C 146.0625 59.726562 145.921875 59.660156 145.859375 59.691406 C 145.582031 59.820312 145.257812 59.863281 145.046875 60.125 C 144.90625 60.292969 144.757812 60.453125 144.570312 60.660156 C 144.886719 60.820312 145.195312 60.980469 145.5 61.144531 C 145.570312 61.179688 145.644531 61.230469 145.683594 61.296875 C 145.828125 61.546875 145.972656 61.796875 146.09375 62.058594 C 146.191406 62.277344 146.296875 62.480469 146.28125 62.75 C 146.273438 62.90625 146.503906 63.0625 146.53125 63.234375 C 146.617188 63.738281 147.019531 64.039062 147.25 64.449219 C 147.300781 64.542969 147.445312 64.605469 147.5625 64.644531 C 147.761719 64.710938 147.980469 64.71875 148.175781 64.796875 C 148.761719 65.03125 149.34375 65.09375 149.964844 64.910156 C 150.246094 64.824219 150.417969 64.707031 150.488281 64.40625 C 150.207031 64.320312 149.9375 64.332031 149.65625 64.359375 C 149.136719 64.40625 148.597656 64.402344 148.238281 63.9375 C 148.027344 63.671875 147.878906 63.347656 147.734375 63.035156 C 147.601562 62.738281 147.84375 62.140625 148.148438 62.105469 C 148.464844 62.070312 148.792969 61.9375 149.113281 62.089844 C 149.308594 62.183594 149.394531 62.09375 149.460938 61.847656 Z M 145.863281 56.570312 C 145.703125 56.675781 145.5625 56.773438 145.417969 56.863281 C 145.167969 57.015625 144.917969 57.164062 144.664062 57.3125 C 144.355469 57.496094 144.058594 57.703125 143.730469 57.855469 C 143.363281 58.023438 143.050781 58.25 142.777344 58.542969 C 142.515625 58.828125 142.417969 59.222656 142.09375 59.46875 C 141.910156 59.613281 141.996094 59.800781 142.140625 59.957031 C 142.488281 60.335938 142.828125 60.722656 143.199219 61.136719 C 143.359375 60.875 143.527344 60.636719 143.664062 60.382812 C 143.769531 60.179688 143.828125 59.96875 144.121094 59.972656 C 144.203125 59.972656 144.28125 59.84375 144.363281 59.78125 C 144.605469 59.585938 144.832031 59.367188 145.09375 59.203125 C 145.472656 58.96875 145.898438 58.917969 146.378906 59.027344 C 146.40625 58.820312 146.480469 58.632812 146.445312 58.460938 C 146.363281 58.054688 146.242188 57.65625 146.121094 57.257812 C 146.050781 57.023438 145.949219 56.800781 145.863281 56.570312 Z M 173.550781 29.414062 C 173.164062 29.222656 173.160156 29.210938 172.824219 29.347656 C 172.648438 29.421875 172.484375 29.539062 172.332031 29.65625 C 172.183594 29.769531 172.066406 29.921875 171.921875 30.042969 C 171.65625 30.269531 171.433594 30.195312 171.320312 29.867188 C 171.261719 29.703125 171.125 29.5625 171.09375 29.398438 C 171.015625 29.039062 170.761719 29.007812 170.398438 28.964844 C 170.667969 29.535156 170.910156 30.050781 171.148438 30.5625 C 171.265625 30.816406 171.382812 31.074219 171.492188 31.332031 C 171.617188 31.609375 171.707031 31.910156 171.859375 32.167969 C 172.273438 32.851562 172.707031 33.519531 173.144531 34.1875 C 173.3125 34.445312 173.507812 34.6875 173.691406 34.9375 C 173.753906 34.675781 173.765625 34.429688 173.75 34.191406 C 173.710938 33.558594 173.644531 32.929688 173.617188 32.300781 C 173.582031 31.339844 173.574219 30.378906 173.550781 29.414062 Z M 173.898438 45.449219 C 174.113281 45.691406 174.285156 45.894531 174.46875 46.085938 C 175.136719 46.785156 175.425781 47.6875 175.777344 48.550781 C 176.070312 49.265625 176.515625 49.800781 177.199219 50.152344 C 177.257812 50.035156 177.328125 49.9375 177.359375 49.828125 C 177.398438 49.691406 177.4375 49.546875 177.425781 49.40625 C 177.398438 49.015625 177.34375 48.628906 177.296875 48.242188 C 177.277344 48.101562 177.257812 47.964844 177.222656 47.832031 C 177.144531 47.550781 177.054688 47.277344 176.96875 46.996094 C 176.933594 46.882812 176.914062 46.761719 176.871094 46.648438 C 176.828125 46.539062 176.769531 46.4375 176.710938 46.339844 C 176.542969 46.058594 176.398438 45.757812 176.195312 45.503906 C 176.078125 45.359375 175.867188 45.214844 175.695312 45.207031 C 175.101562 45.179688 174.507812 45.210938 173.898438 45.449219 Z M 174.441406 28.109375 C 174.578125 27.964844 174.664062 27.882812 174.738281 27.789062 C 174.945312 27.519531 175.164062 27.265625 175.476562 27.109375 C 175.75 26.972656 175.835938 26.992188 175.976562 27.265625 C 176.035156 27.378906 176.070312 27.5 176.121094 27.617188 C 176.183594 27.757812 176.253906 27.894531 176.300781 27.996094 C 177.304688 27.878906 177.925781 27.324219 178.351562 26.464844 C 177.914062 26.011719 177.484375 25.566406 177.066406 25.132812 C 176.339844 26.191406 175.289062 26.765625 174.339844 27.441406 C 174.371094 27.640625 174.402344 27.832031 174.441406 28.109375 Z M 155.070312 56.761719 C 154.3125 56.621094 153.707031 55.980469 152.816406 55.875 C 152.695312 56.367188 152.585938 56.847656 152.449219 57.324219 C 152.394531 57.519531 152.476562 57.605469 152.632812 57.679688 C 152.976562 57.847656 153.335938 57.882812 153.710938 57.835938 C 154.058594 57.789062 154.402344 57.734375 154.746094 57.699219 C 154.917969 57.679688 154.957031 57.589844 154.96875 57.445312 C 154.992188 57.234375 155.03125 57.023438 155.070312 56.761719 Z M 152.234375 55.667969 C 151.933594 55.558594 151.617188 55.441406 151.296875 55.328125 C 151.140625 55.277344 150.984375 55.226562 150.828125 55.183594 C 150.753906 55.164062 150.640625 55.125 150.605469 55.160156 C 150.445312 55.308594 150.226562 55.464844 150.179688 55.65625 C 150.070312 56.101562 150.042969 56.566406 149.980469 57.035156 C 150.25 57.101562 150.476562 57.203125 150.722656 57.066406 C 150.796875 57.023438 150.910156 57.019531 150.996094 57.039062 C 151.300781 57.097656 151.605469 57.175781 151.890625 57.242188 C 152 56.75 152.113281 56.226562 152.234375 55.667969 Z M 172.726562 23.191406 C 172.722656 23.238281 172.71875 23.285156 172.714844 23.328125 C 173.011719 23.375 173.3125 23.417969 173.617188 23.464844 C 173.445312 23.867188 173 24.085938 172.636719 23.964844 C 172.339844 23.863281 172.316406 23.820312 172.378906 23.503906 C 172.386719 23.464844 172.390625 23.425781 172.398438 23.367188 C 172.230469 23.367188 172.089844 23.355469 171.949219 23.371094 C 171.738281 23.390625 171.558594 23.5625 171.632812 23.707031 C 171.804688 24.042969 171.796875 24.472656 172.171875 24.699219 C 172.367188 24.820312 172.523438 24.792969 172.621094 24.585938 C 172.808594 24.1875 172.988281 24.160156 173.226562 24.523438 C 173.328125 24.679688 173.449219 24.722656 173.609375 24.699219 C 173.863281 24.664062 174.117188 24.625 174.367188 24.566406 C 174.480469 24.539062 174.582031 24.46875 174.671875 24.425781 C 174.570312 23.9375 174.304688 23.597656 173.980469 23.324219 C 173.597656 23 173.148438 23.21875 172.726562 23.191406 Z M 170.597656 28.21875 C 170.859375 27.671875 171.160156 27.550781 171.632812 27.738281 C 171.71875 27.773438 171.804688 27.816406 171.890625 27.851562 C 172.117188 27.9375 172.34375 28.019531 172.578125 28.109375 C 172.621094 27.992188 172.648438 27.921875 172.671875 27.855469 C 172.421875 27.707031 172.183594 27.558594 171.941406 27.417969 C 171.539062 27.191406 171.296875 26.847656 171.199219 26.398438 C 171.175781 26.300781 171.121094 26.203125 171.0625 26.121094 C 170.925781 25.9375 170.839844 25.941406 170.699219 26.113281 C 170.613281 26.222656 170.542969 26.347656 170.445312 26.449219 C 170.1875 26.726562 169.917969 26.996094 169.621094 27.300781 C 169.964844 27.625 170.269531 27.910156 170.597656 28.21875 Z M 177.25 22.777344 C 177.613281 22.523438 177.757812 22.179688 177.847656 21.8125 C 177.917969 21.519531 177.960938 21.21875 178.046875 20.929688 C 178.203125 20.386719 178.066406 20.070312 177.523438 19.800781 C 177.65625 20.828125 177.074219 21.691406 176.898438 22.664062 C 177.011719 22.699219 177.132812 22.738281 177.25 22.777344 Z M 172.03125 26.25 C 172.023438 26.277344 172.015625 26.304688 172.007812 26.332031 C 172.429688 26.613281 172.921875 26.726562 173.386719 26.894531 C 173.855469 27.066406 174.25 26.921875 174.632812 26.652344 C 175.03125 26.371094 175.433594 26.09375 175.84375 25.824219 C 176.21875 25.578125 176.277344 25.375 176.0625 24.921875 C 176.023438 24.96875 175.976562 25.007812 175.957031 25.054688 C 175.664062 25.859375 174.996094 26.246094 174.234375 26.367188 C 173.632812 26.464844 172.984375 26.511719 172.367188 26.308594 C 172.261719 26.273438 172.144531 26.269531 172.03125 26.25 Z M 148.511719 69.246094 C 148.324219 68.828125 148.175781 68.464844 148 68.109375 C 147.8125 67.726562 147.738281 67.695312 147.3125 67.789062 C 146.976562 67.867188 146.644531 67.960938 146.308594 68.050781 C 146.292969 68.054688 146.285156 68.089844 146.265625 68.125 C 147.109375 68.265625 147.675781 68.96875 148.511719 69.246094 Z M 155.691406 51.867188 C 155.484375 52.175781 155.480469 52.1875 155.59375 52.480469 C 155.6875 52.71875 155.769531 52.960938 155.871094 53.195312 C 155.9375 53.355469 156.054688 53.429688 156.210938 53.347656 C 156.304688 52.753906 155.953125 52.332031 155.691406 51.867188 Z M 157.296875 52.753906 C 157.226562 52.515625 157.164062 52.292969 157.097656 52.074219 C 157.039062 51.882812 156.714844 51.738281 156.542969 51.789062 C 156.6875 52.199219 156.832031 52.613281 156.980469 53.03125 C 157.03125 52.988281 157.09375 52.941406 157.15625 52.890625 C 157.207031 52.84375 157.253906 52.792969 157.296875 52.753906 Z M 150.589844 63.398438 C 150.6875 63 150.480469 62.566406 150.140625 62.417969 C 149.863281 62.894531 150.015625 63.246094 150.589844 63.398438 Z M 173.757812 27.824219 C 173.566406 27.847656 173.398438 27.84375 173.253906 27.898438 C 173.167969 27.933594 173.105469 28.058594 173.0625 28.152344 C 173.046875 28.183594 173.121094 28.304688 173.15625 28.304688 C 173.238281 28.304688 173.324219 28.265625 173.398438 28.226562 C 173.507812 28.164062 173.613281 28.09375 173.710938 28.015625 C 173.742188 27.988281 173.738281 27.914062 173.757812 27.824219 Z M 149.074219 62.734375 C 148.882812 62.679688 148.710938 62.582031 148.527344 62.6875 C 148.621094 62.917969 148.707031 63.117188 148.808594 63.351562 C 148.902344 63.132812 148.980469 62.953125 149.074219 62.734375 Z M 149.074219 62.734375 "/></g><path style=" stroke:none;fill-rule:nonzero;fill:#8f1c2e;fill-opacity:1;" d="M 175.207031 20.511719 C 175.066406 20.515625 174.925781 20.527344 174.785156 20.53125 C 174.523438 20.539062 174.449219 20.441406 174.53125 20.191406 C 174.734375 19.578125 175.476562 19.414062 175.914062 19.894531 C 175.984375 19.972656 176.015625 20.125 176 20.234375 C 175.976562 20.386719 175.886719 20.527344 175.699219 20.53125 C 175.535156 20.535156 175.371094 20.53125 175.207031 20.53125 C 175.207031 20.523438 175.207031 20.519531 175.207031 20.511719 Z M 175.207031 20.511719 "/><path style=" stroke:none;fill-rule:nonzero;fill:#8f1c2e;fill-opacity:1;" d="M 172.875 21.445312 C 173.023438 21.546875 173.136719 21.664062 173.273438 21.707031 C 173.40625 21.75 173.5625 21.714844 173.722656 21.714844 C 173.730469 21.898438 173.738281 22.023438 173.746094 22.1875 C 173.429688 22.21875 173.121094 22.320312 172.84375 22.089844 C 172.703125 21.972656 172.726562 21.703125 172.875 21.445312 Z M 172.875 21.445312 "/><path style=" stroke:none;fill-rule:nonzero;fill:#8f1c2e;fill-opacity:1;" d="M 175.636719 32.566406 C 175.636719 32.738281 175.460938 32.902344 175.261719 32.914062 C 175.113281 32.917969 174.882812 32.597656 174.902344 32.386719 C 174.917969 32.203125 175.035156 32.089844 175.222656 32.078125 C 175.398438 32.066406 175.636719 32.347656 175.636719 32.566406 Z M 175.636719 32.566406 "/><path style=" stroke:none;fill-rule:nonzero;fill:#8f1c2e;fill-opacity:1;" d="M 175.546875 30.84375 C 175.394531 30.976562 175.3125 31.113281 175.203125 31.136719 C 174.988281 31.175781 174.976562 30.957031 174.976562 30.828125 C 174.976562 30.734375 175.09375 30.640625 175.160156 30.542969 C 175.269531 30.628906 175.378906 30.714844 175.546875 30.84375 Z M 175.546875 30.84375 "/><g style="fill:#0a0a0a;fill-opacity:1;"><g transform="translate(14.400002, 97.948387)"><path style="stroke:none" d="M 17.796875 -0.28125 L 17.796875 0.1875 C 14.960938 0.0625 12.539062 0 10.53125 0 C 8.539062 0 6.128906 0.0625 3.296875 0.1875 L 3.296875 -0.28125 C 4.429688 -0.5 5.242188 -0.78125 5.734375 -1.125 C 6.222656 -1.476562 6.628906 -2.265625 6.953125 -3.484375 C 7.285156 -4.710938 7.453125 -6.585938 7.453125 -9.109375 L 7.453125 -65.84375 C 7.453125 -67.695312 7.296875 -68.9375 6.984375 -69.5625 C 6.671875 -70.195312 5.820312 -70.6875 4.4375 -71.03125 L 4.4375 -71.546875 C 8.082031 -71.796875 11.148438 -72.503906 13.640625 -73.671875 L 13.640625 -9.109375 C 13.640625 -6.585938 13.800781 -4.710938 14.125 -3.484375 C 14.457031 -2.265625 14.867188 -1.476562 15.359375 -1.125 C 15.847656 -0.78125 16.660156 -0.5 17.796875 -0.28125 Z M 17.796875 -0.28125 "/></g></g><g style="fill:#0a0a0a;fill-opacity:1;"><g transform="translate(32.257007, 97.948387)"><path style="stroke:none" d="M 22.515625 1.5625 L 21.84375 1.5625 L 4.34375 -40.875 C 3.613281 -42.664062 2.921875 -43.828125 2.265625 -44.359375 C 1.609375 -44.898438 0.570312 -45.296875 -0.84375 -45.546875 L -0.84375 -46.015625 C -0.5625 -46.015625 0.503906 -46 2.359375 -45.96875 C 4.210938 -45.9375 5.816406 -45.921875 7.171875 -45.921875 C 8.585938 -45.921875 10.265625 -45.9375 12.203125 -45.96875 C 14.140625 -46 15.234375 -46.015625 15.484375 -46.015625 L 15.484375 -45.546875 C 13.941406 -45.359375 12.832031 -45.070312 12.15625 -44.6875 C 11.476562 -44.3125 11.140625 -43.71875 11.140625 -42.90625 C 11.140625 -42.144531 11.359375 -41.210938 11.796875 -40.109375 L 24.453125 -9.203125 L 35.390625 -33.75 C 37.253906 -37.769531 38.1875 -40.535156 38.1875 -42.046875 C 38.1875 -44.128906 36.578125 -45.296875 33.359375 -45.546875 L 33.359375 -46.015625 C 33.585938 -46.015625 34.492188 -46 36.078125 -45.96875 C 37.671875 -45.9375 39.300781 -45.921875 40.96875 -45.921875 C 42.195312 -45.921875 43.570312 -45.9375 45.09375 -45.96875 C 46.625 -46 47.546875 -46.015625 47.859375 -46.015625 L 47.859375 -45.546875 C 46.910156 -45.359375 46.144531 -45.113281 45.5625 -44.8125 C 44.976562 -44.507812 44.269531 -43.914062 43.4375 -43.03125 C 42.601562 -42.15625 41.695312 -40.828125 40.71875 -39.046875 C 39.75 -37.273438 38.617188 -34.925781 37.328125 -32 Z M 22.515625 1.5625 "/></g></g><g style="fill:#0a0a0a;fill-opacity:1;"><g transform="translate(75.926789, 97.948387)"><path style="stroke:none" d="M 48.890625 21.46875 L 48.890625 21.953125 C 46.054688 21.816406 43.648438 21.75 41.671875 21.75 C 39.660156 21.75 37.238281 21.816406 34.40625 21.953125 L 34.40625 21.46875 C 35.539062 21.25 36.347656 20.96875 36.828125 20.625 C 37.316406 20.28125 37.726562 19.492188 38.0625 18.265625 C 38.394531 17.035156 38.5625 15.160156 38.5625 12.640625 L 38.5625 -3.109375 C 34.75 -0.410156 30.53125 0.9375 25.90625 0.9375 C 21.914062 0.9375 18.210938 0.0664062 14.796875 -1.671875 C 11.378906 -3.421875 8.578125 -6.0625 6.390625 -9.59375 C 4.203125 -13.132812 3.109375 -17.253906 3.109375 -21.953125 C 3.109375 -28.992188 5.394531 -34.828125 9.96875 -39.453125 C 14.550781 -44.078125 20.414062 -46.390625 27.5625 -46.390625 C 29.601562 -46.390625 32.046875 -46.035156 34.890625 -45.328125 C 37.742188 -44.617188 40.222656 -44.265625 42.328125 -44.265625 C 44.316406 -44.265625 46.535156 -44.453125 48.984375 -44.828125 L 48.984375 -44.359375 C 47.160156 -43.765625 45.992188 -42.757812 45.484375 -41.34375 C 44.984375 -39.925781 44.734375 -37.644531 44.734375 -34.5 L 44.734375 12.640625 C 44.734375 15.160156 44.898438 17.035156 45.234375 18.265625 C 45.566406 19.492188 45.976562 20.28125 46.46875 20.625 C 46.957031 20.96875 47.765625 21.25 48.890625 21.46875 Z M 38.5625 -5.703125 L 38.5625 -28.984375 C 38.5625 -31.585938 38.53125 -33.476562 38.46875 -34.65625 C 38.40625 -35.84375 38.207031 -37.222656 37.875 -38.796875 C 37.539062 -40.367188 37.019531 -41.460938 36.3125 -42.078125 C 35.601562 -42.691406 34.585938 -43.238281 33.265625 -43.71875 C 31.953125 -44.207031 30.269531 -44.453125 28.21875 -44.453125 C 23.03125 -44.453125 18.882812 -42.46875 15.78125 -38.5 C 12.6875 -34.539062 11.140625 -29.117188 11.140625 -22.234375 C 11.140625 -18.671875 11.617188 -15.503906 12.578125 -12.734375 C 13.535156 -9.972656 14.804688 -7.789062 16.390625 -6.1875 C 17.984375 -4.582031 19.71875 -3.378906 21.59375 -2.578125 C 23.46875 -1.773438 25.425781 -1.375 27.46875 -1.375 C 29.757812 -1.375 31.894531 -1.789062 33.875 -2.625 C 35.863281 -3.457031 37.425781 -4.484375 38.5625 -5.703125 Z M 38.5625 -5.703125 "/></g></g></g></svg>